<svg xmlns="http://www.w3.org/2000/svg" width="1254" height="1254" viewBox="0 0 1254 1254">
<path fill="#ffffff" fill-rule="evenodd" d="M 604 841 L 603 840 L 601 840 L 597 842 L 595 844 L 590 846 L 588 848 L 583 850 L 581 852 L 578 853 L 576 855 L 571 857 L 556 867 L 553 868 L 531 894 L 517 913 L 517 915 L 527 912 L 532 909 L 539 907 L 544 904 L 546 904 L 565 895 L 589 868 L 595 859 Z M 516 792 L 498 780 L 478 765 L 476 765 L 474 767 L 469 769 L 467 771 L 462 773 L 457 777 L 454 778 L 449 782 L 446 783 L 441 787 L 438 788 L 414 804 L 404 812 L 397 816 L 390 822 L 386 824 L 366 839 L 357 847 L 352 850 L 343 858 L 342 858 L 337 863 L 336 863 L 331 868 L 330 868 L 325 873 L 318 878 L 311 885 L 310 885 L 301 894 L 303 895 L 310 892 L 313 892 L 335 884 L 338 884 L 339 883 L 344 882 L 350 879 L 353 879 L 356 877 L 359 877 L 360 876 L 362 876 L 363 875 L 365 875 L 387 867 L 393 866 L 399 863 L 402 863 L 421 856 L 424 856 L 425 857 L 425 860 L 417 875 L 417 877 L 410 891 L 410 893 L 408 896 L 408 898 L 406 901 L 406 903 L 404 907 L 404 910 L 405 910 L 443 886 L 485 854 L 485 852 L 467 842 L 464 838 L 486 819 L 492 815 L 498 809 L 499 809 L 515 795 L 516 795 Z M 0 0 L 0 1253 L 1253 1253 L 1253 0 Z M 294 271 L 314 256 L 332 246 L 334 246 L 341 242 L 346 241 L 349 239 L 351 239 L 358 236 L 361 236 L 366 234 L 370 234 L 371 233 L 376 233 L 377 232 L 383 232 L 384 231 L 868 231 L 869 232 L 882 233 L 883 234 L 898 237 L 901 239 L 904 239 L 907 241 L 914 243 L 934 253 L 954 267 L 975 287 L 975 288 L 981 294 L 989 305 L 990 308 L 994 313 L 1002 328 L 1002 330 L 1005 335 L 1005 337 L 1008 343 L 1008 345 L 1010 349 L 1010 352 L 1012 356 L 1012 360 L 1013 361 L 1013 365 L 1014 366 L 1014 372 L 1015 373 L 1015 381 L 1016 382 L 1016 806 L 1014 807 L 986 784 L 969 772 L 965 768 L 945 753 L 943 753 L 942 752 L 932 752 L 931 751 L 929 752 L 928 751 L 917 751 L 916 750 L 911 750 L 907 746 L 889 733 L 875 721 L 866 715 L 842 695 L 833 689 L 814 673 L 809 670 L 800 662 L 782 649 L 773 641 L 768 642 L 744 658 L 712 682 L 708 686 L 703 689 L 694 697 L 689 700 L 666 720 L 659 725 L 653 731 L 652 731 L 586 790 L 586 791 L 589 791 L 592 789 L 599 787 L 604 784 L 606 784 L 609 782 L 611 782 L 614 780 L 621 778 L 626 775 L 631 774 L 636 771 L 638 771 L 643 768 L 650 766 L 655 763 L 657 763 L 662 760 L 664 760 L 669 757 L 671 757 L 690 748 L 702 739 L 712 730 L 713 730 L 752 693 L 753 693 L 759 687 L 761 687 L 764 690 L 761 696 L 746 716 L 744 720 L 741 723 L 739 727 L 733 734 L 731 738 L 728 741 L 724 748 L 721 751 L 703 779 L 704 781 L 705 780 L 707 780 L 773 746 L 777 746 L 781 751 L 779 756 L 775 761 L 774 764 L 770 769 L 769 772 L 765 777 L 764 780 L 756 792 L 753 799 L 751 801 L 747 810 L 743 816 L 743 819 L 747 818 L 777 798 L 779 798 L 781 801 L 766 821 L 764 825 L 752 840 L 750 844 L 739 858 L 740 859 L 784 837 L 786 835 L 795 831 L 797 829 L 812 821 L 834 800 L 834 799 L 840 793 L 849 781 L 852 781 L 858 784 L 860 784 L 865 787 L 867 787 L 884 795 L 886 795 L 891 798 L 893 798 L 900 802 L 901 804 L 885 835 L 886 836 L 896 830 L 908 820 L 909 820 L 917 812 L 918 812 L 926 803 L 934 792 L 940 787 L 944 788 L 947 790 L 949 790 L 952 792 L 954 792 L 977 803 L 979 803 L 1001 814 L 1003 814 L 1016 821 L 1016 868 L 1015 869 L 1015 877 L 1014 878 L 1013 889 L 1012 890 L 1012 893 L 1011 894 L 1011 897 L 1010 898 L 1010 901 L 1009 902 L 1007 910 L 995 936 L 993 938 L 992 941 L 986 950 L 979 958 L 979 959 L 973 965 L 973 966 L 962 977 L 961 977 L 955 983 L 954 983 L 946 990 L 937 996 L 934 997 L 932 999 L 929 1000 L 927 1002 L 919 1006 L 917 1006 L 910 1010 L 908 1010 L 892 1016 L 889 1016 L 884 1018 L 880 1018 L 879 1019 L 874 1019 L 873 1020 L 865 1020 L 864 1021 L 389 1021 L 388 1020 L 380 1020 L 379 1019 L 369 1018 L 368 1017 L 361 1016 L 354 1013 L 351 1013 L 348 1011 L 346 1011 L 343 1009 L 336 1007 L 324 1001 L 301 986 L 276 962 L 260 940 L 249 919 L 249 917 L 247 914 L 247 912 L 242 899 L 242 896 L 240 891 L 240 887 L 239 886 L 239 881 L 238 880 L 238 873 L 237 872 L 237 379 L 238 378 L 238 371 L 239 370 L 239 365 L 240 364 L 240 360 L 241 359 L 242 352 L 243 351 L 247 337 L 257 316 L 268 299 L 272 295 L 276 289 Z"/>
<path fill="#102d51" fill-rule="evenodd" d="M 397 391 L 397 648 L 456 648 L 456 542 L 457 541 L 459 542 L 462 548 L 462 550 L 471 567 L 471 569 L 478 582 L 478 584 L 488 603 L 488 605 L 497 622 L 497 624 L 509 648 L 568 648 L 567 644 L 562 635 L 562 633 L 557 624 L 557 622 L 551 611 L 551 609 L 544 596 L 544 594 L 533 572 L 533 570 L 529 564 L 529 562 L 525 555 L 525 553 L 506 515 L 506 511 L 518 487 L 520 485 L 555 415 L 555 413 L 566 391 L 509 391 L 490 428 L 490 430 L 458 494 L 456 493 L 456 392 L 455 391 Z M 296 271 L 276 291 L 276 292 L 269 300 L 258 317 L 252 329 L 252 331 L 249 336 L 249 338 L 247 341 L 247 343 L 245 347 L 245 350 L 242 358 L 241 367 L 240 368 L 239 385 L 238 386 L 238 864 L 239 865 L 239 876 L 240 877 L 240 883 L 241 884 L 242 893 L 246 904 L 247 910 L 258 934 L 269 951 L 276 959 L 276 960 L 302 985 L 315 994 L 335 1005 L 337 1005 L 347 1010 L 349 1010 L 356 1013 L 359 1013 L 363 1015 L 366 1015 L 367 1016 L 371 1016 L 372 1017 L 376 1017 L 377 1018 L 383 1018 L 384 1019 L 396 1019 L 397 1020 L 855 1020 L 856 1019 L 868 1019 L 869 1018 L 876 1018 L 877 1017 L 886 1016 L 887 1015 L 897 1013 L 898 1012 L 903 1011 L 906 1009 L 911 1008 L 920 1003 L 924 1002 L 926 1000 L 936 995 L 959 978 L 973 964 L 973 963 L 979 957 L 991 940 L 992 937 L 994 935 L 1005 911 L 1005 909 L 1009 899 L 1010 892 L 1011 891 L 1011 887 L 1012 886 L 1012 882 L 1013 881 L 1013 874 L 1014 873 L 1014 857 L 1015 856 L 1015 822 L 1002 815 L 1000 815 L 991 810 L 989 810 L 971 801 L 969 801 L 964 798 L 962 798 L 957 795 L 955 795 L 948 791 L 946 791 L 943 789 L 939 789 L 934 794 L 926 805 L 911 820 L 888 837 L 885 837 L 884 836 L 884 834 L 899 805 L 899 803 L 894 800 L 892 800 L 873 791 L 866 789 L 861 786 L 859 786 L 853 783 L 849 783 L 839 795 L 839 796 L 834 801 L 834 802 L 814 821 L 805 826 L 803 828 L 787 836 L 785 838 L 770 845 L 768 847 L 742 860 L 739 860 L 738 859 L 738 857 L 740 854 L 744 850 L 754 835 L 779 802 L 779 800 L 775 801 L 761 811 L 758 812 L 753 816 L 744 821 L 741 819 L 741 817 L 747 805 L 749 803 L 753 794 L 757 789 L 764 776 L 778 755 L 779 750 L 777 748 L 772 748 L 754 757 L 752 759 L 706 782 L 703 782 L 701 779 L 727 740 L 730 737 L 732 733 L 741 722 L 745 715 L 760 695 L 762 691 L 762 689 L 760 688 L 744 703 L 743 703 L 716 729 L 715 729 L 709 735 L 708 735 L 691 749 L 675 757 L 673 757 L 661 763 L 654 765 L 635 774 L 633 774 L 630 776 L 628 776 L 625 778 L 623 778 L 620 780 L 618 780 L 615 782 L 613 782 L 610 784 L 608 784 L 605 786 L 598 788 L 593 791 L 591 791 L 587 793 L 584 791 L 587 787 L 588 787 L 596 779 L 597 779 L 607 769 L 608 769 L 643 737 L 644 737 L 657 725 L 658 725 L 692 696 L 697 693 L 706 685 L 715 679 L 719 675 L 735 663 L 746 656 L 749 653 L 769 640 L 773 640 L 793 655 L 797 659 L 802 662 L 811 670 L 816 673 L 830 685 L 839 691 L 886 729 L 904 742 L 908 746 L 911 748 L 914 748 L 915 749 L 939 750 L 940 751 L 944 751 L 946 752 L 958 762 L 962 764 L 971 772 L 993 788 L 1015 806 L 1014 804 L 1015 803 L 1015 390 L 1014 389 L 1014 377 L 1013 376 L 1013 369 L 1012 368 L 1012 363 L 1011 362 L 1009 351 L 1008 350 L 1006 342 L 1004 339 L 1003 334 L 1000 329 L 1000 327 L 996 321 L 993 314 L 989 309 L 988 306 L 980 295 L 975 290 L 975 289 L 952 267 L 931 253 L 913 244 L 908 243 L 905 241 L 903 241 L 896 238 L 893 238 L 892 237 L 889 237 L 884 235 L 880 235 L 879 234 L 863 233 L 862 232 L 391 232 L 390 233 L 381 233 L 380 234 L 374 234 L 373 235 L 364 236 L 363 237 L 357 238 L 356 239 L 345 242 L 342 244 L 340 244 L 333 248 L 331 248 L 327 250 L 325 252 L 315 257 Z M 605 840 L 603 847 L 592 866 L 566 896 L 561 899 L 559 899 L 552 903 L 550 903 L 543 907 L 536 909 L 531 912 L 529 912 L 521 916 L 519 916 L 518 917 L 515 915 L 518 909 L 530 893 L 552 867 L 555 866 L 557 864 L 560 863 L 562 861 L 565 860 L 582 849 L 587 847 L 589 845 L 596 842 L 598 840 L 602 838 Z M 518 793 L 518 794 L 513 799 L 512 799 L 489 819 L 483 823 L 466 838 L 466 840 L 486 851 L 486 855 L 451 882 L 444 886 L 441 889 L 423 901 L 420 902 L 415 906 L 406 911 L 404 911 L 402 908 L 405 902 L 408 892 L 414 880 L 414 878 L 424 859 L 423 857 L 419 858 L 416 860 L 414 860 L 407 863 L 404 863 L 403 864 L 401 864 L 400 865 L 398 865 L 376 873 L 373 873 L 370 875 L 368 875 L 364 877 L 361 877 L 360 878 L 358 878 L 357 879 L 355 879 L 354 880 L 352 880 L 351 881 L 349 881 L 327 889 L 324 889 L 321 891 L 319 891 L 315 893 L 312 893 L 305 896 L 301 896 L 300 895 L 300 893 L 322 873 L 323 873 L 355 846 L 360 843 L 364 839 L 392 818 L 396 816 L 399 813 L 406 809 L 409 806 L 434 789 L 437 788 L 445 782 L 448 781 L 453 777 L 456 776 L 461 772 L 464 771 L 466 769 L 471 767 L 475 764 L 479 764 L 506 784 L 513 788 Z M 329 335 L 633 335 L 634 336 L 634 637 L 635 638 L 635 642 L 634 643 L 634 703 L 635 704 L 633 706 L 330 706 L 328 704 L 328 336 Z"/>
<path fill="#f3ba2a" fill-rule="evenodd" d="M 330 336 L 330 704 L 633 704 L 633 336 Z M 398 389 L 455 389 L 457 391 L 457 493 L 458 493 L 458 491 L 504 398 L 504 396 L 506 394 L 506 392 L 509 389 L 565 389 L 567 391 L 567 393 L 559 408 L 559 410 L 517 494 L 515 496 L 512 502 L 512 504 L 507 512 L 507 514 L 536 573 L 536 575 L 541 584 L 541 586 L 547 597 L 547 599 L 559 623 L 559 625 L 563 632 L 563 634 L 569 645 L 569 649 L 568 650 L 509 650 L 507 648 L 506 644 L 495 623 L 495 621 L 485 602 L 485 600 L 477 585 L 477 583 L 469 568 L 469 566 L 461 551 L 461 549 L 458 543 L 457 543 L 457 648 L 455 650 L 397 650 L 395 648 L 395 392 Z"/>
<path fill="#7c8074" fill-rule="evenodd" d="M 469 834 L 465 838 L 465 839 L 465 838 Z M 742 817 L 742 819 L 744 820 L 742 819 Z M 776 800 L 777 799 L 779 799 L 777 799 Z M 848 783 L 849 782 L 852 782 L 849 782 Z M 909 747 L 911 749 L 914 749 L 911 749 Z M 773 747 L 777 747 L 779 749 L 777 747 Z M 507 645 L 509 649 L 568 649 L 509 649 Z M 396 392 L 396 648 L 397 649 L 455 649 L 397 649 L 396 648 Z M 507 393 L 509 390 L 565 390 L 509 390 Z M 398 390 L 455 390 L 456 391 L 455 390 Z M 329 336 L 329 704 L 330 705 L 633 705 L 634 704 L 633 705 L 330 705 L 329 704 Z"/>
</svg>