<svg xmlns="http://www.w3.org/2000/svg" width="1254" height="1254" viewBox="0 0 1254 1254">
<path fill="#ffffff" fill-rule="evenodd" d="M 872 845 L 870 855 L 869 856 L 869 860 L 867 865 L 867 869 L 865 874 L 865 878 L 863 883 L 863 887 L 862 888 L 862 891 L 861 892 L 861 895 L 859 900 L 859 904 L 857 909 L 857 913 L 856 914 L 856 917 L 854 922 L 854 926 L 852 931 L 852 935 L 851 936 L 849 947 L 868 947 L 871 931 L 873 929 L 895 929 L 896 930 L 896 934 L 898 939 L 899 947 L 918 947 L 918 944 L 916 939 L 916 935 L 914 930 L 914 926 L 913 925 L 913 922 L 911 917 L 911 913 L 909 908 L 909 904 L 907 899 L 907 895 L 905 890 L 905 886 L 904 885 L 904 882 L 902 877 L 902 873 L 901 872 L 901 869 L 899 864 L 899 860 L 897 855 L 896 847 L 895 845 Z M 883 873 L 885 874 L 885 877 L 886 878 L 886 882 L 887 883 L 887 887 L 888 888 L 888 892 L 889 893 L 889 897 L 890 898 L 890 902 L 891 903 L 891 907 L 892 908 L 892 911 L 891 912 L 876 912 L 875 911 L 876 904 L 877 903 L 877 899 L 878 898 L 878 894 L 879 893 L 879 889 L 880 888 L 880 884 L 881 883 L 881 879 L 882 878 L 882 874 Z M 791 845 L 791 947 L 837 947 L 837 929 L 836 930 L 826 930 L 825 929 L 812 929 L 811 928 L 811 845 Z M 776 845 L 727 845 L 727 947 L 747 947 L 747 908 L 748 907 L 770 907 L 771 906 L 771 889 L 748 889 L 747 888 L 747 864 L 748 863 L 776 863 L 775 862 L 776 861 Z M 634 845 L 634 947 L 681 947 L 681 929 L 661 929 L 660 930 L 656 930 L 654 928 L 654 845 Z M 570 845 L 569 851 L 568 852 L 568 856 L 567 857 L 567 860 L 566 861 L 566 864 L 564 869 L 564 873 L 562 878 L 562 882 L 560 887 L 560 891 L 559 892 L 559 895 L 558 896 L 558 899 L 557 900 L 557 903 L 555 908 L 555 912 L 554 913 L 554 916 L 553 917 L 553 920 L 552 921 L 552 924 L 550 929 L 550 933 L 549 934 L 549 937 L 548 938 L 548 941 L 547 942 L 546 947 L 566 947 L 567 945 L 567 940 L 569 935 L 569 931 L 571 929 L 593 929 L 595 931 L 595 935 L 596 936 L 596 940 L 597 941 L 598 947 L 618 947 L 617 940 L 616 939 L 616 936 L 615 935 L 615 932 L 614 931 L 614 928 L 612 923 L 612 919 L 611 918 L 611 915 L 610 914 L 610 911 L 608 906 L 608 902 L 607 901 L 607 898 L 606 897 L 606 894 L 605 893 L 605 890 L 603 885 L 603 881 L 602 880 L 602 877 L 600 872 L 600 868 L 599 867 L 599 864 L 598 863 L 598 860 L 597 859 L 597 856 L 595 851 L 595 847 L 594 845 Z M 582 873 L 584 876 L 584 880 L 585 881 L 585 885 L 586 886 L 586 890 L 587 891 L 587 895 L 588 896 L 588 900 L 589 901 L 589 905 L 590 906 L 590 911 L 589 912 L 576 912 L 575 913 L 573 910 L 575 905 L 576 895 L 577 894 L 577 890 L 579 885 L 580 876 Z M 465 845 L 465 947 L 484 947 L 483 946 L 483 941 L 484 940 L 484 930 L 483 929 L 483 920 L 484 919 L 483 896 L 484 895 L 484 893 L 483 891 L 484 890 L 487 892 L 487 894 L 490 899 L 492 906 L 496 913 L 498 920 L 501 925 L 501 927 L 504 932 L 504 934 L 507 939 L 507 941 L 510 947 L 529 947 L 529 845 L 511 845 L 511 902 L 510 903 L 509 903 L 507 900 L 507 898 L 505 895 L 503 888 L 500 883 L 500 881 L 497 876 L 497 874 L 491 862 L 491 860 L 489 857 L 489 855 L 486 850 L 485 846 L 484 845 Z M 345 845 L 345 947 L 365 947 L 365 845 Z M 955 843 L 954 844 L 947 845 L 941 848 L 935 854 L 932 860 L 932 862 L 930 866 L 930 873 L 929 874 L 929 918 L 930 919 L 930 927 L 931 928 L 932 933 L 938 942 L 944 946 L 946 946 L 949 948 L 953 948 L 954 949 L 965 949 L 966 948 L 972 947 L 979 943 L 984 938 L 987 932 L 988 926 L 989 925 L 989 893 L 961 893 L 961 909 L 970 909 L 971 910 L 971 923 L 969 927 L 964 931 L 956 931 L 954 930 L 950 926 L 949 921 L 948 920 L 948 874 L 949 873 L 949 869 L 953 863 L 957 861 L 962 861 L 963 862 L 965 862 L 969 866 L 970 871 L 971 872 L 971 878 L 989 878 L 989 867 L 988 866 L 988 863 L 987 862 L 986 857 L 978 848 L 969 844 L 965 844 L 964 843 Z M 410 843 L 409 844 L 402 845 L 394 850 L 390 855 L 387 861 L 386 869 L 385 870 L 385 923 L 386 924 L 386 928 L 387 929 L 388 934 L 394 942 L 400 946 L 402 946 L 406 948 L 409 948 L 410 949 L 420 949 L 421 948 L 428 947 L 434 944 L 441 937 L 443 933 L 443 931 L 445 927 L 445 920 L 446 919 L 446 893 L 417 893 L 417 908 L 418 909 L 426 909 L 427 910 L 427 922 L 425 927 L 420 931 L 412 931 L 410 930 L 407 927 L 404 919 L 404 876 L 405 875 L 405 869 L 409 863 L 413 861 L 419 861 L 421 862 L 426 868 L 426 870 L 427 871 L 427 878 L 445 878 L 446 877 L 446 872 L 445 871 L 445 865 L 444 864 L 444 861 L 442 858 L 442 856 L 436 849 L 426 844 L 422 844 L 421 843 Z M 291 843 L 290 844 L 286 844 L 279 847 L 272 853 L 269 858 L 269 860 L 267 864 L 267 878 L 271 888 L 276 894 L 283 899 L 298 907 L 305 913 L 307 917 L 307 924 L 304 929 L 301 931 L 296 932 L 295 931 L 290 930 L 286 926 L 286 924 L 285 923 L 285 916 L 266 916 L 266 928 L 267 929 L 267 932 L 271 939 L 278 945 L 282 946 L 285 948 L 289 948 L 290 949 L 301 949 L 302 948 L 307 948 L 314 945 L 317 943 L 323 936 L 326 928 L 326 911 L 322 902 L 315 895 L 306 890 L 304 888 L 301 887 L 299 885 L 296 884 L 288 877 L 286 872 L 286 869 L 287 868 L 287 866 L 292 861 L 300 861 L 305 865 L 307 870 L 307 875 L 325 875 L 325 864 L 321 854 L 314 847 L 310 845 L 303 844 L 302 843 Z M 524 759 L 520 761 L 518 761 L 513 764 L 511 764 L 497 771 L 495 771 L 490 774 L 488 774 L 462 807 L 464 807 L 467 805 L 475 803 L 483 799 L 485 799 L 491 796 L 498 794 L 514 774 Z M 460 718 L 434 697 L 432 697 L 369 739 L 366 742 L 356 748 L 353 751 L 340 759 L 337 762 L 327 768 L 324 771 L 310 780 L 293 793 L 286 797 L 290 796 L 293 794 L 295 794 L 298 792 L 303 791 L 306 789 L 314 787 L 317 785 L 325 783 L 328 781 L 333 780 L 336 778 L 341 777 L 344 775 L 346 775 L 347 774 L 355 772 L 358 770 L 369 767 L 372 765 L 386 761 L 392 758 L 396 758 L 397 759 L 397 762 L 395 764 L 378 798 L 378 799 L 379 799 L 395 790 L 397 788 L 400 787 L 413 778 L 416 777 L 419 774 L 423 772 L 426 769 L 438 761 L 440 759 L 425 752 L 424 751 L 424 748 Z M 500 719 L 507 717 L 510 715 L 515 714 L 523 710 L 528 709 L 531 707 L 536 706 L 539 704 L 541 704 L 544 702 L 546 702 L 549 700 L 551 700 L 555 698 L 558 698 L 560 700 L 559 701 L 558 706 L 583 689 L 599 676 L 603 674 L 624 658 L 627 658 L 628 659 L 627 663 L 625 665 L 622 672 L 617 679 L 615 684 L 613 686 L 611 691 L 609 693 L 607 698 L 602 705 L 599 712 L 597 714 L 593 722 L 595 722 L 599 720 L 601 718 L 614 712 L 616 710 L 625 706 L 627 704 L 632 702 L 641 696 L 648 693 L 650 695 L 649 701 L 647 703 L 641 716 L 639 718 L 620 755 L 634 748 L 636 746 L 643 743 L 645 741 L 650 739 L 652 737 L 658 734 L 660 736 L 660 738 L 651 752 L 643 762 L 637 772 L 634 775 L 630 782 L 627 785 L 626 788 L 623 792 L 625 790 L 632 787 L 639 782 L 651 776 L 658 771 L 663 769 L 670 764 L 675 762 L 677 760 L 680 759 L 682 757 L 687 755 L 692 751 L 705 744 L 709 741 L 713 734 L 723 721 L 726 721 L 741 729 L 743 731 L 748 733 L 750 735 L 755 737 L 762 742 L 768 745 L 771 745 L 781 740 L 783 740 L 790 736 L 792 736 L 826 719 L 828 719 L 830 722 L 812 758 L 820 754 L 822 754 L 838 746 L 840 744 L 842 744 L 844 742 L 846 742 L 852 739 L 854 737 L 857 737 L 859 740 L 858 741 L 858 743 L 851 757 L 848 761 L 855 757 L 857 757 L 858 758 L 858 760 L 849 770 L 844 778 L 848 776 L 850 776 L 859 771 L 861 771 L 887 758 L 889 758 L 968 797 L 921 758 L 916 755 L 912 751 L 895 739 L 891 735 L 835 693 L 830 695 L 794 719 L 785 726 L 780 727 L 679 651 L 675 649 L 656 634 L 652 632 L 636 620 L 634 620 L 622 628 L 615 634 L 611 636 L 604 642 L 589 652 L 585 656 L 581 658 L 551 681 L 547 683 L 523 701 L 519 705 L 510 711 L 501 719 Z M 222 427 L 222 429 L 211 451 L 211 453 L 207 461 L 206 466 L 204 469 L 202 477 L 200 480 L 200 482 L 197 489 L 197 492 L 192 505 L 192 508 L 191 509 L 191 512 L 190 513 L 190 516 L 189 517 L 189 520 L 187 525 L 187 529 L 185 534 L 185 538 L 184 539 L 184 543 L 183 544 L 183 548 L 182 549 L 182 553 L 181 554 L 180 566 L 179 567 L 178 583 L 177 584 L 177 594 L 176 595 L 176 616 L 175 617 L 176 657 L 177 658 L 178 678 L 179 679 L 181 699 L 182 700 L 182 705 L 183 706 L 183 710 L 184 711 L 186 725 L 187 726 L 187 729 L 188 730 L 188 733 L 189 734 L 192 749 L 194 753 L 194 756 L 195 757 L 202 780 L 204 783 L 208 796 L 210 799 L 210 801 L 212 804 L 212 806 L 215 811 L 215 813 L 217 817 L 227 812 L 257 792 L 260 791 L 263 788 L 266 787 L 290 771 L 293 768 L 296 767 L 314 755 L 317 752 L 326 747 L 338 739 L 341 736 L 344 735 L 371 717 L 371 305 L 363 296 L 361 291 L 360 284 L 361 283 L 361 276 L 362 275 L 362 273 L 367 265 L 373 260 L 379 257 L 384 257 L 385 256 L 394 257 L 397 259 L 399 259 L 403 262 L 409 269 L 411 273 L 412 280 L 413 281 L 413 285 L 412 286 L 411 293 L 407 300 L 401 306 L 401 697 L 427 680 L 431 678 L 437 678 L 465 699 L 472 703 L 475 706 L 480 709 L 483 709 L 493 701 L 500 697 L 514 686 L 518 684 L 525 678 L 529 676 L 536 670 L 540 668 L 551 659 L 555 657 L 566 648 L 570 646 L 595 627 L 599 625 L 624 606 L 628 604 L 631 601 L 637 600 L 645 605 L 657 615 L 661 617 L 684 635 L 688 637 L 780 706 L 784 706 L 816 685 L 819 684 L 824 680 L 833 675 L 840 677 L 851 686 L 855 688 L 870 700 L 874 702 L 893 717 L 897 719 L 924 740 L 939 750 L 995 792 L 1005 798 L 1008 801 L 1029 815 L 1031 815 L 1032 813 L 1032 811 L 1035 806 L 1035 804 L 1041 791 L 1042 786 L 1044 783 L 1044 781 L 1045 780 L 1045 778 L 1046 777 L 1046 775 L 1054 753 L 1055 746 L 1057 742 L 1057 739 L 1058 738 L 1058 735 L 1059 734 L 1059 731 L 1061 726 L 1061 722 L 1062 721 L 1062 717 L 1063 716 L 1063 712 L 1064 711 L 1064 706 L 1065 705 L 1065 701 L 1066 700 L 1066 695 L 1067 694 L 1067 689 L 1068 688 L 1068 681 L 1069 680 L 1069 673 L 1070 672 L 1070 662 L 1071 661 L 1071 645 L 1072 644 L 1072 608 L 1071 607 L 1071 591 L 1070 590 L 1070 580 L 1069 579 L 1069 572 L 1068 571 L 1067 557 L 1066 556 L 1066 551 L 1065 550 L 1065 546 L 1064 545 L 1064 541 L 1063 540 L 1063 536 L 1062 535 L 1062 531 L 1060 526 L 1059 518 L 1057 514 L 1057 511 L 1054 503 L 1054 500 L 1053 499 L 1053 497 L 1050 490 L 1050 487 L 1047 481 L 1043 467 L 1041 464 L 1041 462 L 1039 459 L 1037 452 L 1034 447 L 1034 445 L 1030 438 L 1030 436 L 1018 412 L 1016 410 L 1013 403 L 1011 401 L 1003 386 L 997 378 L 994 372 L 983 358 L 981 354 L 977 350 L 965 334 L 949 317 L 949 316 L 920 288 L 919 288 L 913 282 L 912 282 L 907 277 L 906 277 L 889 263 L 861 244 L 856 242 L 854 240 L 842 234 L 840 232 L 814 219 L 812 219 L 805 215 L 803 215 L 798 212 L 788 209 L 780 205 L 778 205 L 759 198 L 756 198 L 749 195 L 746 195 L 745 194 L 742 194 L 741 193 L 738 193 L 737 192 L 734 192 L 733 191 L 730 191 L 725 189 L 721 189 L 716 187 L 706 186 L 705 185 L 701 185 L 700 184 L 689 183 L 688 182 L 672 181 L 671 180 L 661 180 L 660 179 L 645 179 L 644 178 L 604 178 L 603 179 L 589 179 L 588 180 L 577 180 L 576 181 L 569 181 L 568 182 L 560 182 L 559 183 L 547 184 L 546 185 L 542 185 L 541 186 L 537 186 L 536 187 L 522 189 L 521 190 L 518 190 L 517 191 L 502 194 L 498 196 L 495 196 L 488 199 L 485 199 L 484 200 L 470 204 L 467 206 L 459 208 L 456 210 L 454 210 L 451 212 L 444 214 L 437 218 L 435 218 L 399 236 L 397 238 L 379 248 L 370 255 L 363 259 L 347 271 L 330 286 L 329 286 L 317 298 L 316 298 L 289 326 L 289 327 L 283 333 L 269 352 L 265 356 L 244 387 Z M 924 369 L 925 370 L 925 373 L 923 376 L 923 378 L 915 393 L 915 395 L 904 417 L 902 419 L 897 430 L 895 432 L 892 439 L 890 441 L 882 456 L 876 464 L 873 470 L 862 484 L 862 486 L 928 559 L 933 566 L 920 577 L 902 589 L 897 591 L 895 593 L 872 604 L 870 604 L 862 608 L 860 608 L 854 611 L 851 611 L 841 615 L 838 615 L 837 616 L 834 616 L 833 617 L 830 617 L 825 619 L 811 621 L 810 622 L 805 622 L 804 623 L 799 623 L 798 624 L 792 624 L 791 625 L 783 625 L 782 626 L 772 626 L 771 627 L 738 627 L 737 626 L 730 625 L 728 623 L 725 622 L 723 620 L 720 613 L 720 604 L 719 603 L 719 585 L 722 582 L 725 582 L 726 581 L 745 581 L 746 582 L 766 583 L 767 584 L 772 584 L 773 585 L 775 585 L 781 589 L 781 593 L 776 598 L 746 615 L 747 614 L 750 614 L 760 610 L 763 610 L 764 609 L 769 608 L 772 606 L 774 606 L 785 601 L 793 594 L 796 588 L 796 584 L 797 583 L 797 574 L 796 573 L 796 544 L 795 543 L 795 524 L 794 523 L 793 486 L 792 485 L 791 453 L 790 452 L 790 436 L 789 435 L 789 420 L 788 419 L 788 404 L 787 403 L 787 395 L 790 391 L 792 391 L 793 390 L 809 389 L 810 388 L 818 388 L 819 387 L 827 387 L 828 386 L 836 386 L 837 385 L 844 385 L 845 384 L 850 384 L 851 383 L 858 383 L 859 382 L 870 381 L 871 380 L 881 379 L 882 378 L 891 377 L 896 375 L 900 375 L 901 374 L 908 373 L 909 372 L 919 370 L 920 369 Z M 763 329 L 768 337 L 768 339 L 770 342 L 770 345 L 772 349 L 773 361 L 774 362 L 774 370 L 775 371 L 775 380 L 776 381 L 776 390 L 777 391 L 778 415 L 779 416 L 779 428 L 780 429 L 780 442 L 781 443 L 781 456 L 782 457 L 782 470 L 783 471 L 783 484 L 784 485 L 785 521 L 786 522 L 786 542 L 787 543 L 787 561 L 788 562 L 788 577 L 786 580 L 784 581 L 773 575 L 763 573 L 762 572 L 753 571 L 752 570 L 730 569 L 729 568 L 694 569 L 693 570 L 682 570 L 681 571 L 672 571 L 671 572 L 664 572 L 663 573 L 655 573 L 654 574 L 648 574 L 647 575 L 633 576 L 632 577 L 627 577 L 626 578 L 613 579 L 612 580 L 607 580 L 606 581 L 600 581 L 599 582 L 594 582 L 593 583 L 588 583 L 587 584 L 581 584 L 580 585 L 575 585 L 574 586 L 569 586 L 568 587 L 562 587 L 561 588 L 556 588 L 555 589 L 550 589 L 549 590 L 544 590 L 543 591 L 538 591 L 537 592 L 531 592 L 530 593 L 525 593 L 524 594 L 519 594 L 518 595 L 512 595 L 511 596 L 506 596 L 505 597 L 499 597 L 498 598 L 493 598 L 492 599 L 486 599 L 485 600 L 479 600 L 478 601 L 466 602 L 465 603 L 458 603 L 457 604 L 451 604 L 450 605 L 443 605 L 442 606 L 435 606 L 434 607 L 427 607 L 426 608 L 419 608 L 418 609 L 414 609 L 411 606 L 411 603 L 412 602 L 412 591 L 413 590 L 413 577 L 414 576 L 414 560 L 415 559 L 416 516 L 417 515 L 417 482 L 418 481 L 418 428 L 417 427 L 417 397 L 416 396 L 415 355 L 414 354 L 413 330 L 412 329 L 412 320 L 415 317 L 428 317 L 429 316 L 443 316 L 444 315 L 469 314 L 470 313 L 480 313 L 481 312 L 490 312 L 491 311 L 500 311 L 501 310 L 511 310 L 512 309 L 530 308 L 531 307 L 540 307 L 541 306 L 551 306 L 552 305 L 561 305 L 562 304 L 571 304 L 572 303 L 583 303 L 584 302 L 594 302 L 595 301 L 607 301 L 608 300 L 644 299 L 645 298 L 666 298 L 667 299 L 686 299 L 687 300 L 704 301 L 705 302 L 709 302 L 710 303 L 714 303 L 715 304 L 719 304 L 723 306 L 726 306 L 727 307 L 735 309 L 747 315 L 753 319 Z M 167 392 L 167 394 L 157 413 L 157 415 L 153 422 L 153 424 L 151 427 L 149 434 L 146 439 L 146 441 L 143 447 L 139 461 L 137 464 L 136 470 L 133 477 L 133 480 L 130 487 L 130 490 L 129 491 L 129 494 L 128 495 L 128 498 L 127 499 L 127 502 L 125 507 L 125 511 L 124 512 L 124 515 L 122 520 L 122 524 L 121 525 L 121 529 L 120 530 L 120 534 L 119 535 L 119 540 L 118 541 L 118 546 L 117 547 L 117 552 L 116 553 L 116 559 L 115 560 L 115 566 L 114 567 L 114 575 L 113 576 L 112 608 L 111 609 L 111 642 L 112 643 L 112 662 L 113 663 L 113 674 L 114 675 L 114 682 L 115 683 L 116 697 L 117 698 L 117 703 L 118 704 L 118 709 L 119 710 L 119 715 L 120 716 L 122 730 L 123 731 L 123 734 L 125 739 L 125 743 L 126 744 L 128 755 L 132 766 L 132 769 L 133 770 L 142 799 L 144 802 L 145 807 L 147 810 L 147 812 L 149 815 L 151 822 L 154 827 L 154 829 L 158 836 L 158 838 L 163 848 L 165 849 L 169 846 L 179 841 L 181 839 L 184 838 L 186 836 L 189 835 L 189 832 L 183 821 L 183 819 L 180 814 L 180 812 L 174 799 L 173 794 L 168 783 L 168 781 L 166 777 L 166 774 L 164 771 L 164 768 L 161 761 L 161 758 L 159 754 L 159 751 L 156 743 L 156 740 L 154 735 L 154 731 L 152 726 L 152 722 L 151 721 L 151 717 L 150 716 L 150 711 L 149 710 L 149 706 L 148 705 L 148 700 L 147 699 L 146 685 L 145 684 L 144 665 L 143 664 L 143 648 L 142 647 L 142 608 L 143 607 L 143 591 L 144 590 L 144 579 L 145 578 L 146 562 L 147 561 L 148 549 L 149 548 L 149 543 L 150 542 L 150 538 L 151 537 L 153 523 L 154 522 L 155 514 L 156 513 L 157 506 L 159 502 L 160 495 L 162 491 L 162 488 L 163 487 L 171 461 L 176 450 L 177 445 L 182 435 L 182 433 L 186 426 L 186 424 L 191 415 L 191 413 L 205 386 L 207 384 L 209 379 L 219 364 L 220 361 L 244 327 L 257 312 L 257 311 L 263 305 L 263 304 L 292 274 L 293 274 L 305 262 L 306 262 L 324 246 L 348 228 L 379 208 L 384 206 L 391 201 L 404 195 L 406 193 L 416 188 L 418 188 L 429 182 L 431 182 L 436 179 L 438 179 L 451 173 L 456 172 L 459 170 L 461 170 L 462 169 L 464 169 L 486 161 L 489 161 L 493 159 L 496 159 L 504 156 L 512 155 L 513 154 L 516 154 L 521 152 L 525 152 L 526 151 L 535 150 L 536 149 L 540 149 L 541 148 L 546 148 L 547 147 L 553 147 L 554 146 L 560 146 L 561 145 L 568 145 L 569 144 L 577 144 L 578 143 L 602 142 L 603 141 L 648 141 L 649 142 L 665 142 L 666 143 L 676 143 L 677 144 L 692 145 L 693 146 L 699 146 L 700 147 L 705 147 L 706 148 L 711 148 L 712 149 L 726 151 L 727 152 L 730 152 L 735 154 L 739 154 L 740 155 L 747 156 L 751 158 L 758 159 L 762 161 L 765 161 L 766 162 L 786 168 L 789 170 L 797 172 L 800 174 L 802 174 L 805 176 L 812 178 L 817 181 L 819 181 L 828 186 L 830 186 L 866 205 L 903 229 L 924 246 L 925 246 L 944 263 L 945 263 L 980 298 L 980 299 L 988 307 L 988 308 L 1003 325 L 1015 341 L 1017 345 L 1026 357 L 1032 368 L 1036 373 L 1037 376 L 1042 383 L 1046 392 L 1048 394 L 1060 418 L 1060 420 L 1065 429 L 1065 431 L 1068 436 L 1068 438 L 1074 451 L 1074 453 L 1075 454 L 1077 462 L 1079 465 L 1079 467 L 1085 483 L 1085 486 L 1088 493 L 1088 496 L 1089 497 L 1089 500 L 1090 501 L 1090 504 L 1091 505 L 1091 508 L 1092 509 L 1092 512 L 1093 513 L 1093 516 L 1095 521 L 1095 525 L 1096 526 L 1096 530 L 1097 531 L 1097 535 L 1098 536 L 1098 540 L 1099 541 L 1099 546 L 1100 547 L 1100 552 L 1101 553 L 1101 558 L 1102 559 L 1102 566 L 1103 567 L 1103 574 L 1104 575 L 1104 584 L 1105 585 L 1105 599 L 1106 600 L 1106 648 L 1105 649 L 1105 663 L 1104 664 L 1104 673 L 1103 674 L 1103 682 L 1102 683 L 1102 688 L 1101 689 L 1101 695 L 1100 696 L 1099 707 L 1098 708 L 1096 722 L 1095 723 L 1095 726 L 1093 731 L 1093 735 L 1092 736 L 1090 747 L 1088 751 L 1087 758 L 1086 759 L 1086 761 L 1083 768 L 1083 771 L 1081 774 L 1075 794 L 1073 797 L 1072 802 L 1069 807 L 1069 809 L 1067 812 L 1065 819 L 1058 833 L 1067 838 L 1072 842 L 1075 843 L 1077 845 L 1080 846 L 1082 848 L 1084 848 L 1087 842 L 1087 840 L 1092 831 L 1092 829 L 1095 824 L 1095 822 L 1097 819 L 1097 817 L 1100 812 L 1101 807 L 1103 804 L 1104 799 L 1106 796 L 1106 794 L 1113 775 L 1113 772 L 1116 765 L 1116 762 L 1118 758 L 1118 755 L 1119 754 L 1119 751 L 1120 750 L 1120 747 L 1121 746 L 1121 743 L 1122 742 L 1122 739 L 1124 734 L 1124 730 L 1126 725 L 1129 705 L 1130 704 L 1131 692 L 1132 691 L 1132 684 L 1133 683 L 1133 676 L 1134 675 L 1134 666 L 1135 665 L 1135 651 L 1136 650 L 1136 595 L 1135 594 L 1135 581 L 1134 580 L 1134 571 L 1133 570 L 1133 562 L 1132 561 L 1131 547 L 1130 546 L 1129 535 L 1128 534 L 1128 530 L 1127 529 L 1127 525 L 1126 524 L 1126 520 L 1125 519 L 1125 515 L 1124 514 L 1124 510 L 1123 509 L 1120 494 L 1118 490 L 1117 483 L 1114 476 L 1114 473 L 1113 472 L 1105 446 L 1103 443 L 1102 438 L 1100 435 L 1100 433 L 1098 430 L 1096 423 L 1088 407 L 1088 405 L 1076 381 L 1074 379 L 1070 370 L 1065 363 L 1060 353 L 1040 323 L 1028 307 L 1024 303 L 1021 298 L 1003 278 L 1003 277 L 990 264 L 990 263 L 966 240 L 965 240 L 958 233 L 957 233 L 931 211 L 919 202 L 909 196 L 906 193 L 897 188 L 892 184 L 889 183 L 884 179 L 849 160 L 847 160 L 832 152 L 830 152 L 825 149 L 823 149 L 818 146 L 816 146 L 808 142 L 806 142 L 800 139 L 798 139 L 797 138 L 795 138 L 773 130 L 770 130 L 766 128 L 763 128 L 762 127 L 759 127 L 758 126 L 755 126 L 754 125 L 751 125 L 750 124 L 747 124 L 746 123 L 743 123 L 742 122 L 739 122 L 734 120 L 730 120 L 729 119 L 715 117 L 714 116 L 709 116 L 708 115 L 703 115 L 702 114 L 696 114 L 695 113 L 688 113 L 687 112 L 680 112 L 679 111 L 654 110 L 653 109 L 602 109 L 601 110 L 588 110 L 587 111 L 577 111 L 576 112 L 568 112 L 567 113 L 553 114 L 552 115 L 547 115 L 546 116 L 541 116 L 540 117 L 535 117 L 534 118 L 530 118 L 529 119 L 515 121 L 514 122 L 511 122 L 510 123 L 507 123 L 506 124 L 491 127 L 487 129 L 484 129 L 477 132 L 474 132 L 473 133 L 456 138 L 453 140 L 448 141 L 445 143 L 440 144 L 437 146 L 435 146 L 432 148 L 425 150 L 420 153 L 418 153 L 371 177 L 369 179 L 356 186 L 329 204 L 309 219 L 293 233 L 292 233 L 285 240 L 284 240 L 250 273 L 250 274 L 240 284 L 240 285 L 234 291 L 234 292 L 217 312 L 215 316 L 209 323 L 192 348 L 191 351 L 187 356 L 182 366 L 180 368 L 178 373 L 176 375 L 169 390 Z M 0 0 L 0 1253 L 1253 1253 L 1253 0 Z M 606 73 L 648 73 L 649 74 L 665 74 L 666 75 L 676 75 L 677 76 L 686 76 L 687 77 L 702 78 L 703 79 L 708 79 L 709 80 L 714 80 L 715 81 L 720 81 L 721 82 L 726 82 L 727 83 L 741 85 L 746 87 L 750 87 L 751 88 L 754 88 L 755 89 L 770 92 L 774 94 L 777 94 L 784 97 L 787 97 L 788 98 L 811 105 L 814 107 L 819 108 L 822 110 L 824 110 L 827 112 L 834 114 L 839 117 L 841 117 L 848 121 L 850 121 L 882 137 L 884 139 L 889 141 L 891 143 L 896 145 L 898 147 L 911 154 L 932 168 L 960 189 L 965 194 L 966 194 L 971 199 L 978 204 L 985 211 L 986 211 L 998 223 L 999 223 L 1019 243 L 1019 244 L 1038 264 L 1038 265 L 1043 270 L 1043 271 L 1047 275 L 1047 276 L 1051 280 L 1051 281 L 1055 285 L 1067 301 L 1075 314 L 1080 320 L 1081 323 L 1087 331 L 1088 334 L 1099 351 L 1111 375 L 1113 377 L 1116 383 L 1116 385 L 1124 400 L 1124 402 L 1127 407 L 1127 409 L 1130 414 L 1130 416 L 1132 419 L 1132 421 L 1138 434 L 1138 436 L 1139 437 L 1139 439 L 1140 440 L 1140 442 L 1148 464 L 1148 467 L 1150 471 L 1150 474 L 1152 478 L 1152 481 L 1153 482 L 1153 485 L 1154 486 L 1154 489 L 1155 490 L 1155 493 L 1156 494 L 1156 497 L 1158 502 L 1158 506 L 1159 507 L 1159 511 L 1160 512 L 1160 516 L 1161 517 L 1161 521 L 1162 522 L 1162 526 L 1163 527 L 1164 538 L 1165 539 L 1166 552 L 1167 553 L 1168 569 L 1169 570 L 1169 581 L 1170 582 L 1170 598 L 1171 599 L 1171 647 L 1170 648 L 1170 663 L 1169 664 L 1169 674 L 1168 675 L 1168 684 L 1167 685 L 1167 692 L 1166 693 L 1165 706 L 1164 707 L 1163 718 L 1162 719 L 1160 733 L 1158 738 L 1157 747 L 1156 748 L 1156 751 L 1155 752 L 1152 767 L 1150 771 L 1150 774 L 1146 784 L 1146 787 L 1145 788 L 1140 805 L 1136 813 L 1135 818 L 1133 821 L 1133 823 L 1131 826 L 1129 833 L 1123 845 L 1123 847 L 1115 862 L 1115 864 L 1113 868 L 1111 870 L 1098 896 L 1096 898 L 1089 911 L 1085 916 L 1084 919 L 1074 934 L 1071 937 L 1069 941 L 1057 957 L 1053 961 L 1050 966 L 1044 972 L 1044 973 L 1033 985 L 1033 986 L 1021 998 L 1021 999 L 991 1028 L 990 1028 L 982 1036 L 981 1036 L 976 1041 L 975 1041 L 970 1046 L 955 1057 L 951 1061 L 947 1063 L 930 1076 L 921 1082 L 918 1083 L 913 1087 L 910 1088 L 902 1094 L 897 1096 L 895 1098 L 883 1104 L 881 1106 L 845 1124 L 843 1124 L 836 1128 L 834 1128 L 829 1131 L 827 1131 L 824 1133 L 822 1133 L 819 1135 L 817 1135 L 804 1141 L 802 1141 L 801 1142 L 793 1144 L 790 1146 L 784 1147 L 771 1152 L 768 1152 L 764 1154 L 757 1155 L 753 1157 L 749 1157 L 748 1158 L 745 1158 L 744 1159 L 741 1159 L 736 1161 L 732 1161 L 731 1162 L 727 1162 L 726 1163 L 722 1163 L 721 1164 L 717 1164 L 716 1165 L 711 1165 L 710 1166 L 705 1166 L 704 1167 L 699 1167 L 698 1168 L 684 1169 L 683 1170 L 675 1170 L 674 1171 L 665 1171 L 664 1172 L 649 1172 L 648 1173 L 600 1173 L 599 1172 L 586 1172 L 585 1171 L 574 1171 L 573 1170 L 556 1169 L 555 1168 L 549 1168 L 548 1167 L 531 1165 L 530 1164 L 516 1162 L 511 1160 L 507 1160 L 506 1159 L 491 1156 L 487 1154 L 484 1154 L 480 1152 L 470 1150 L 469 1149 L 452 1144 L 449 1142 L 441 1140 L 438 1138 L 433 1137 L 416 1129 L 414 1129 L 407 1125 L 405 1125 L 371 1108 L 369 1106 L 362 1103 L 360 1101 L 355 1099 L 353 1097 L 348 1095 L 346 1093 L 333 1086 L 306 1068 L 286 1053 L 282 1049 L 271 1041 L 257 1028 L 256 1028 L 245 1017 L 244 1017 L 214 986 L 214 985 L 197 966 L 197 965 L 180 944 L 178 940 L 168 927 L 167 924 L 159 913 L 158 910 L 147 893 L 126 852 L 126 850 L 122 843 L 122 841 L 119 836 L 119 834 L 117 831 L 117 829 L 114 824 L 113 819 L 111 816 L 110 811 L 108 808 L 108 806 L 107 805 L 107 803 L 99 781 L 99 778 L 97 774 L 97 771 L 95 767 L 95 764 L 94 763 L 94 760 L 93 759 L 93 756 L 92 755 L 92 752 L 91 751 L 91 748 L 89 743 L 89 739 L 88 738 L 88 734 L 87 733 L 87 729 L 86 728 L 86 724 L 85 723 L 85 718 L 84 717 L 84 712 L 83 711 L 83 707 L 82 706 L 81 693 L 80 692 L 79 674 L 78 673 L 78 662 L 77 661 L 77 643 L 76 642 L 76 608 L 77 607 L 77 588 L 78 587 L 78 576 L 79 575 L 79 566 L 80 565 L 80 557 L 81 556 L 82 543 L 83 542 L 84 531 L 85 530 L 85 526 L 86 525 L 86 521 L 87 520 L 87 515 L 89 510 L 89 506 L 91 501 L 92 493 L 94 489 L 94 486 L 95 485 L 95 482 L 99 471 L 99 468 L 100 467 L 109 438 L 111 435 L 112 430 L 114 427 L 116 420 L 119 415 L 121 408 L 133 384 L 133 382 L 136 378 L 143 363 L 145 361 L 148 354 L 150 352 L 158 337 L 164 329 L 165 326 L 173 314 L 176 311 L 178 307 L 184 300 L 189 292 L 211 266 L 211 265 L 219 257 L 219 256 L 257 218 L 258 218 L 266 210 L 267 210 L 284 195 L 285 195 L 289 191 L 309 176 L 334 159 L 337 158 L 342 154 L 345 153 L 357 145 L 400 123 L 402 123 L 409 119 L 411 119 L 423 113 L 425 113 L 428 111 L 441 107 L 444 105 L 446 105 L 465 98 L 468 98 L 475 95 L 478 95 L 482 93 L 485 93 L 489 91 L 492 91 L 493 90 L 496 90 L 501 88 L 505 88 L 506 87 L 514 86 L 515 85 L 519 85 L 520 84 L 528 83 L 529 82 L 546 80 L 547 79 L 553 79 L 554 78 L 560 78 L 561 77 L 568 77 L 569 76 L 577 76 L 578 75 L 588 75 L 589 74 L 605 74 Z"/>
<path fill="#152b4a" fill-rule="evenodd" d="M 595 990 L 595 1024 L 606 1024 L 610 1020 L 611 1018 L 611 1014 L 612 1013 L 612 1002 L 611 1001 L 611 996 L 610 994 L 605 990 Z M 782 989 L 782 1005 L 790 1005 L 791 1004 L 793 1004 L 796 1000 L 796 994 L 793 990 L 791 990 L 790 989 Z M 724 989 L 720 992 L 718 996 L 718 1018 L 719 1019 L 719 1021 L 722 1024 L 724 1025 L 731 1025 L 735 1022 L 736 1017 L 737 1016 L 737 999 L 736 998 L 736 994 L 733 990 L 731 990 L 730 989 Z M 661 989 L 657 992 L 655 996 L 655 1018 L 659 1024 L 661 1025 L 668 1025 L 672 1022 L 674 1017 L 674 998 L 673 997 L 673 994 L 670 990 L 668 989 Z M 418 989 L 414 991 L 412 994 L 412 999 L 411 1000 L 411 1016 L 412 1017 L 412 1020 L 415 1024 L 417 1025 L 425 1025 L 430 1019 L 430 1014 L 431 1013 L 431 1000 L 430 999 L 430 995 L 426 990 L 424 989 Z M 884 875 L 883 877 L 883 881 L 882 882 L 882 886 L 881 887 L 881 891 L 880 892 L 880 896 L 879 897 L 879 901 L 878 902 L 878 906 L 877 907 L 877 911 L 890 911 L 890 906 L 889 905 L 889 901 L 888 900 L 888 896 L 887 895 L 887 891 L 886 890 L 886 886 L 885 885 L 885 881 L 884 880 Z M 582 874 L 582 878 L 580 883 L 580 887 L 579 888 L 579 892 L 578 893 L 578 897 L 577 898 L 577 902 L 576 903 L 575 911 L 589 911 L 589 909 L 588 908 L 588 903 L 587 902 L 587 898 L 586 897 L 585 889 L 584 888 L 584 884 L 583 883 L 583 879 L 582 878 Z M 923 370 L 918 371 L 914 373 L 899 376 L 898 377 L 894 377 L 889 379 L 884 379 L 883 380 L 879 380 L 878 381 L 874 381 L 873 382 L 868 382 L 867 383 L 862 383 L 861 384 L 855 384 L 854 385 L 849 385 L 848 386 L 842 386 L 841 387 L 833 387 L 832 388 L 824 388 L 823 389 L 815 389 L 814 390 L 796 391 L 795 392 L 791 392 L 789 394 L 790 426 L 791 427 L 791 443 L 792 444 L 792 459 L 793 460 L 793 475 L 794 476 L 794 493 L 795 494 L 795 512 L 796 513 L 796 531 L 797 532 L 798 586 L 795 593 L 784 603 L 773 608 L 771 608 L 752 615 L 745 616 L 744 615 L 748 612 L 753 610 L 755 608 L 767 602 L 769 600 L 778 595 L 780 591 L 779 589 L 773 586 L 762 585 L 761 584 L 751 584 L 750 583 L 723 583 L 721 584 L 720 586 L 720 591 L 721 592 L 721 606 L 722 607 L 722 614 L 724 619 L 726 621 L 735 625 L 745 625 L 746 626 L 763 626 L 764 625 L 777 625 L 778 624 L 787 624 L 788 623 L 801 622 L 802 621 L 813 620 L 814 619 L 818 619 L 823 617 L 827 617 L 828 616 L 839 614 L 840 613 L 846 612 L 847 611 L 858 608 L 861 606 L 866 605 L 892 593 L 894 591 L 901 588 L 909 582 L 912 581 L 915 578 L 922 574 L 931 566 L 929 562 L 920 553 L 920 552 L 903 534 L 903 533 L 896 526 L 896 525 L 860 486 L 862 482 L 865 479 L 867 475 L 870 472 L 878 460 L 879 457 L 887 445 L 890 438 L 892 436 L 894 431 L 896 429 L 918 385 L 918 383 L 923 374 L 923 372 L 924 371 Z M 608 366 L 607 367 L 598 367 L 597 368 L 586 368 L 585 369 L 574 369 L 573 370 L 569 370 L 533 435 L 532 434 L 532 374 L 530 373 L 529 374 L 520 374 L 519 375 L 510 375 L 509 376 L 499 376 L 498 377 L 495 377 L 495 528 L 494 529 L 495 531 L 494 532 L 495 533 L 531 529 L 531 474 L 532 473 L 532 462 L 533 461 L 535 463 L 537 468 L 539 470 L 544 480 L 549 487 L 560 508 L 566 517 L 569 524 L 576 524 L 577 523 L 584 523 L 585 522 L 593 522 L 594 521 L 609 520 L 609 518 L 605 512 L 603 507 L 601 505 L 593 490 L 588 483 L 586 478 L 578 466 L 576 461 L 572 456 L 567 446 L 565 444 L 566 441 L 574 429 L 576 424 L 584 412 L 586 407 L 591 400 L 597 388 L 602 381 L 604 376 L 609 369 L 609 367 Z M 762 330 L 752 320 L 746 317 L 744 315 L 740 314 L 733 310 L 731 310 L 727 308 L 724 308 L 720 306 L 717 306 L 716 305 L 712 305 L 711 304 L 706 304 L 705 303 L 700 303 L 699 302 L 690 302 L 689 301 L 676 301 L 675 300 L 638 300 L 637 301 L 604 302 L 603 303 L 580 304 L 579 305 L 559 306 L 558 307 L 549 307 L 548 308 L 539 308 L 538 309 L 528 309 L 527 310 L 518 310 L 517 311 L 499 312 L 498 313 L 489 313 L 488 314 L 478 314 L 477 315 L 467 315 L 466 316 L 454 316 L 453 317 L 441 317 L 440 318 L 415 319 L 414 320 L 414 335 L 415 336 L 416 362 L 417 363 L 418 410 L 419 411 L 419 500 L 418 501 L 418 530 L 417 531 L 417 551 L 416 552 L 416 568 L 415 569 L 415 583 L 414 584 L 413 607 L 422 607 L 423 606 L 430 606 L 431 605 L 446 604 L 447 603 L 453 603 L 454 602 L 460 602 L 461 601 L 468 601 L 469 600 L 475 600 L 476 599 L 481 599 L 482 598 L 488 598 L 489 597 L 494 597 L 495 596 L 501 596 L 502 595 L 507 595 L 508 594 L 514 594 L 515 593 L 520 593 L 521 592 L 526 592 L 527 591 L 533 591 L 534 590 L 539 590 L 540 589 L 545 589 L 546 588 L 551 588 L 552 587 L 558 587 L 559 586 L 564 586 L 565 585 L 570 585 L 571 584 L 577 584 L 578 583 L 583 583 L 584 582 L 589 582 L 590 581 L 595 581 L 596 580 L 602 580 L 603 579 L 608 579 L 609 578 L 615 578 L 616 577 L 621 577 L 622 576 L 628 576 L 629 575 L 635 575 L 636 574 L 642 574 L 643 573 L 649 573 L 650 572 L 666 571 L 667 570 L 685 569 L 686 568 L 699 568 L 700 567 L 739 567 L 740 568 L 749 568 L 750 569 L 761 570 L 769 573 L 772 573 L 777 576 L 781 577 L 783 579 L 785 579 L 786 578 L 786 553 L 785 552 L 785 534 L 784 533 L 784 513 L 783 512 L 782 479 L 781 478 L 781 464 L 780 463 L 780 451 L 779 450 L 779 437 L 778 436 L 778 424 L 777 423 L 777 411 L 776 410 L 775 387 L 774 386 L 773 367 L 772 366 L 772 359 L 771 358 L 770 348 L 768 344 L 768 341 Z M 647 328 L 648 329 L 648 546 L 647 547 L 641 547 L 640 548 L 633 548 L 632 549 L 626 549 L 625 550 L 617 550 L 616 551 L 610 551 L 609 552 L 589 554 L 588 555 L 583 555 L 582 556 L 577 556 L 576 557 L 563 558 L 562 559 L 557 559 L 556 560 L 551 560 L 550 561 L 544 561 L 543 562 L 531 563 L 530 564 L 525 564 L 524 565 L 519 565 L 518 566 L 512 566 L 511 567 L 491 569 L 490 570 L 485 570 L 484 571 L 478 571 L 477 572 L 470 572 L 469 573 L 463 573 L 462 574 L 455 574 L 454 575 L 447 575 L 446 576 L 443 576 L 442 575 L 442 570 L 443 569 L 443 554 L 444 553 L 444 538 L 445 537 L 446 489 L 447 488 L 447 421 L 446 420 L 446 389 L 445 388 L 445 369 L 444 368 L 443 346 L 446 344 L 457 344 L 458 343 L 482 342 L 483 341 L 492 341 L 493 340 L 502 340 L 503 339 L 513 339 L 514 338 L 532 337 L 533 336 L 551 335 L 552 334 L 561 334 L 562 333 L 572 333 L 573 332 L 583 332 L 584 331 L 596 331 L 597 330 L 608 330 L 609 329 L 624 329 L 625 328 Z M 599 75 L 598 76 L 585 76 L 584 77 L 575 77 L 574 78 L 566 78 L 565 79 L 545 81 L 544 82 L 533 83 L 532 84 L 528 84 L 527 85 L 513 87 L 512 88 L 509 88 L 504 90 L 500 90 L 499 91 L 488 93 L 484 95 L 481 95 L 474 98 L 471 98 L 464 101 L 461 101 L 458 103 L 455 103 L 454 104 L 449 105 L 446 107 L 438 109 L 435 111 L 433 111 L 430 113 L 425 114 L 415 119 L 413 119 L 408 122 L 406 122 L 397 127 L 395 127 L 353 149 L 338 159 L 335 160 L 307 179 L 291 191 L 282 199 L 281 199 L 262 216 L 261 216 L 248 229 L 247 229 L 217 260 L 217 261 L 210 268 L 201 280 L 196 285 L 181 305 L 156 343 L 145 364 L 143 366 L 128 396 L 128 398 L 124 405 L 124 407 L 121 412 L 121 414 L 119 417 L 119 419 L 113 432 L 112 437 L 110 440 L 110 442 L 102 464 L 102 467 L 99 474 L 99 477 L 97 481 L 96 488 L 94 492 L 94 496 L 93 497 L 93 500 L 91 505 L 91 509 L 89 514 L 89 518 L 88 519 L 88 523 L 87 524 L 87 529 L 86 530 L 86 534 L 85 535 L 85 540 L 84 541 L 84 547 L 83 548 L 83 554 L 82 555 L 82 562 L 81 563 L 81 572 L 80 573 L 80 583 L 79 584 L 79 597 L 78 598 L 78 650 L 79 651 L 80 677 L 81 678 L 81 686 L 82 687 L 82 694 L 83 695 L 83 701 L 84 702 L 84 707 L 85 708 L 85 714 L 86 715 L 89 735 L 91 740 L 91 744 L 92 745 L 92 748 L 93 749 L 96 764 L 98 768 L 98 771 L 99 772 L 100 778 L 103 785 L 103 788 L 104 789 L 108 803 L 110 806 L 112 814 L 114 817 L 115 822 L 120 832 L 122 839 L 125 844 L 125 846 L 130 855 L 130 857 L 151 897 L 153 899 L 160 912 L 166 920 L 167 923 L 176 935 L 178 939 L 181 942 L 183 946 L 201 968 L 201 969 L 212 981 L 212 982 L 250 1021 L 251 1021 L 267 1036 L 268 1036 L 288 1053 L 304 1065 L 311 1069 L 314 1072 L 323 1078 L 326 1079 L 334 1085 L 337 1086 L 349 1094 L 354 1096 L 356 1098 L 361 1100 L 363 1102 L 398 1120 L 400 1120 L 418 1129 L 420 1129 L 425 1132 L 427 1132 L 435 1136 L 440 1137 L 443 1139 L 454 1142 L 457 1144 L 459 1144 L 466 1147 L 469 1147 L 476 1150 L 486 1152 L 490 1154 L 493 1154 L 494 1155 L 497 1155 L 498 1156 L 501 1156 L 506 1158 L 510 1158 L 515 1160 L 519 1160 L 520 1161 L 524 1161 L 525 1162 L 529 1162 L 530 1163 L 535 1163 L 536 1164 L 540 1164 L 541 1165 L 553 1166 L 554 1167 L 561 1167 L 562 1168 L 569 1168 L 570 1169 L 581 1169 L 582 1170 L 593 1170 L 594 1171 L 617 1171 L 618 1172 L 626 1172 L 627 1171 L 654 1171 L 655 1170 L 667 1170 L 668 1169 L 677 1169 L 678 1168 L 686 1168 L 687 1167 L 700 1166 L 701 1165 L 706 1165 L 707 1164 L 712 1164 L 713 1163 L 717 1163 L 718 1162 L 723 1162 L 724 1161 L 733 1160 L 738 1158 L 742 1158 L 746 1156 L 750 1156 L 751 1155 L 758 1154 L 762 1152 L 765 1152 L 772 1149 L 775 1149 L 776 1148 L 802 1140 L 810 1136 L 812 1136 L 823 1131 L 825 1131 L 837 1125 L 839 1125 L 848 1120 L 850 1120 L 894 1097 L 896 1095 L 909 1088 L 914 1084 L 917 1083 L 935 1071 L 942 1065 L 946 1063 L 967 1046 L 968 1046 L 985 1031 L 986 1031 L 997 1020 L 998 1020 L 1034 983 L 1034 982 L 1050 964 L 1053 959 L 1066 943 L 1083 918 L 1084 915 L 1088 910 L 1089 907 L 1097 895 L 1120 850 L 1120 848 L 1129 829 L 1132 819 L 1136 811 L 1138 803 L 1140 800 L 1140 797 L 1144 788 L 1144 785 L 1147 778 L 1147 775 L 1149 771 L 1149 768 L 1151 764 L 1151 761 L 1152 760 L 1152 757 L 1153 756 L 1153 753 L 1155 748 L 1155 744 L 1157 739 L 1157 735 L 1158 734 L 1158 730 L 1159 729 L 1159 725 L 1160 724 L 1160 720 L 1161 719 L 1161 714 L 1162 713 L 1162 708 L 1163 707 L 1163 702 L 1164 701 L 1164 695 L 1165 694 L 1166 678 L 1167 677 L 1167 668 L 1168 667 L 1168 653 L 1169 652 L 1169 592 L 1168 591 L 1168 578 L 1167 577 L 1167 568 L 1166 567 L 1165 551 L 1164 550 L 1163 537 L 1162 536 L 1162 532 L 1161 531 L 1161 526 L 1160 525 L 1160 520 L 1158 515 L 1156 501 L 1155 500 L 1155 497 L 1154 496 L 1154 493 L 1153 492 L 1150 477 L 1146 466 L 1146 463 L 1145 462 L 1138 439 L 1136 436 L 1136 434 L 1133 428 L 1130 418 L 1121 399 L 1121 397 L 1104 363 L 1102 361 L 1095 347 L 1093 345 L 1086 332 L 1082 327 L 1081 324 L 1073 312 L 1070 309 L 1064 299 L 1051 283 L 1048 278 L 1039 268 L 1039 267 L 1023 250 L 1023 249 L 982 209 L 981 209 L 975 203 L 974 203 L 954 186 L 934 171 L 913 157 L 905 153 L 900 149 L 855 125 L 853 125 L 837 117 L 835 117 L 832 115 L 830 115 L 817 109 L 812 108 L 809 106 L 807 106 L 788 99 L 778 97 L 771 94 L 768 94 L 767 93 L 764 93 L 763 92 L 760 92 L 759 91 L 756 91 L 751 89 L 747 89 L 742 87 L 738 87 L 737 86 L 728 85 L 727 84 L 723 84 L 722 83 L 705 81 L 704 80 L 690 79 L 689 78 L 681 78 L 680 77 L 671 77 L 670 76 L 656 76 L 655 75 Z M 894 1000 L 896 998 L 953 998 L 954 999 L 954 1009 L 952 1011 L 896 1011 L 894 1009 Z M 300 1000 L 302 998 L 360 998 L 362 1001 L 362 1009 L 360 1011 L 302 1011 L 300 1009 Z M 768 977 L 797 977 L 803 980 L 808 985 L 811 993 L 811 1000 L 810 1001 L 810 1005 L 807 1010 L 802 1014 L 802 1016 L 812 1035 L 812 1037 L 811 1038 L 798 1038 L 787 1017 L 782 1017 L 782 1029 L 781 1030 L 781 1035 L 782 1036 L 780 1038 L 778 1037 L 770 1037 L 769 1038 L 767 1036 L 767 978 Z M 581 977 L 609 977 L 616 980 L 623 987 L 626 994 L 626 999 L 627 1000 L 627 1014 L 626 1015 L 626 1020 L 623 1027 L 621 1030 L 616 1034 L 609 1037 L 597 1037 L 596 1038 L 582 1038 L 580 1036 L 580 978 Z M 522 977 L 566 977 L 567 978 L 566 979 L 566 989 L 565 990 L 551 990 L 551 1036 L 549 1038 L 538 1038 L 536 1036 L 536 990 L 522 990 L 521 989 L 521 978 Z M 720 976 L 735 976 L 740 978 L 747 984 L 751 992 L 751 997 L 752 998 L 752 1015 L 751 1016 L 751 1022 L 750 1023 L 750 1025 L 747 1030 L 743 1034 L 735 1038 L 725 1039 L 724 1038 L 719 1038 L 713 1035 L 706 1028 L 703 1020 L 703 994 L 704 993 L 705 988 L 713 979 Z M 462 977 L 466 977 L 468 976 L 469 977 L 475 977 L 476 978 L 476 1020 L 477 1022 L 481 1025 L 488 1025 L 490 1024 L 493 1018 L 493 978 L 494 977 L 507 977 L 508 978 L 508 1019 L 507 1020 L 506 1027 L 499 1035 L 492 1038 L 481 1039 L 480 1038 L 476 1038 L 467 1033 L 463 1028 L 463 1026 L 461 1022 L 461 978 Z M 842 975 L 853 976 L 859 979 L 863 983 L 866 990 L 866 992 L 865 993 L 860 994 L 859 995 L 854 995 L 852 993 L 851 990 L 847 988 L 843 988 L 839 991 L 839 996 L 840 997 L 859 1005 L 864 1009 L 867 1015 L 867 1024 L 864 1031 L 858 1036 L 853 1038 L 849 1038 L 848 1039 L 837 1038 L 829 1034 L 826 1031 L 822 1021 L 824 1019 L 828 1019 L 829 1018 L 833 1018 L 835 1017 L 837 1020 L 837 1022 L 840 1025 L 842 1025 L 843 1026 L 850 1025 L 853 1021 L 851 1016 L 840 1011 L 838 1011 L 831 1007 L 825 1000 L 825 997 L 824 996 L 824 991 L 825 990 L 826 985 L 833 978 L 838 976 L 841 976 Z M 662 975 L 672 976 L 680 980 L 685 985 L 689 996 L 689 1017 L 688 1018 L 688 1022 L 685 1029 L 679 1035 L 675 1037 L 668 1038 L 667 1039 L 657 1038 L 650 1035 L 643 1028 L 640 1020 L 640 994 L 641 993 L 641 991 L 644 985 L 649 980 L 654 977 L 661 976 Z M 420 975 L 428 976 L 435 979 L 442 986 L 446 997 L 446 1015 L 445 1016 L 445 1021 L 442 1028 L 435 1035 L 424 1039 L 413 1038 L 405 1034 L 400 1029 L 396 1019 L 396 996 L 397 995 L 397 992 L 399 987 L 401 984 L 407 979 L 414 976 L 419 976 Z M 871 844 L 896 844 L 897 845 L 897 848 L 898 849 L 898 852 L 900 857 L 900 861 L 901 862 L 901 865 L 903 870 L 903 874 L 905 879 L 905 883 L 906 884 L 906 887 L 908 892 L 908 896 L 909 897 L 909 900 L 911 905 L 911 909 L 913 914 L 913 918 L 915 923 L 915 927 L 916 928 L 916 931 L 918 936 L 918 940 L 919 941 L 919 945 L 920 946 L 920 948 L 919 949 L 899 949 L 897 946 L 897 942 L 896 941 L 896 937 L 895 936 L 894 930 L 876 930 L 875 931 L 874 930 L 872 933 L 870 947 L 868 949 L 848 949 L 847 948 L 848 943 L 849 942 L 850 933 L 852 928 L 852 924 L 853 923 L 853 920 L 855 915 L 855 911 L 857 906 L 857 902 L 858 901 L 858 898 L 860 893 L 860 889 L 861 888 L 861 885 L 863 880 L 863 876 L 865 871 L 865 867 L 867 862 L 867 858 L 868 857 L 868 854 L 870 849 L 870 845 Z M 791 844 L 812 844 L 813 845 L 813 928 L 838 928 L 839 929 L 839 948 L 838 949 L 791 949 L 790 948 L 790 845 Z M 776 844 L 777 845 L 777 864 L 776 865 L 748 865 L 748 887 L 771 887 L 773 889 L 773 906 L 771 908 L 749 908 L 748 909 L 748 948 L 747 949 L 727 949 L 725 947 L 725 845 L 726 844 Z M 633 844 L 654 844 L 655 845 L 655 927 L 656 928 L 681 928 L 682 929 L 682 948 L 681 949 L 634 949 L 632 947 L 632 845 Z M 569 844 L 595 844 L 596 845 L 597 853 L 598 854 L 598 857 L 599 858 L 599 861 L 600 862 L 600 865 L 602 870 L 602 874 L 603 875 L 603 878 L 605 883 L 605 887 L 606 888 L 606 891 L 607 892 L 607 895 L 608 896 L 608 899 L 610 904 L 610 908 L 611 909 L 611 912 L 612 913 L 612 916 L 614 921 L 614 925 L 616 929 L 616 933 L 617 934 L 617 937 L 619 942 L 619 946 L 620 947 L 619 949 L 598 949 L 596 947 L 596 943 L 594 938 L 594 934 L 592 930 L 591 931 L 590 930 L 578 930 L 577 931 L 575 931 L 574 930 L 573 931 L 572 930 L 570 934 L 570 938 L 568 943 L 568 947 L 566 949 L 546 949 L 544 947 L 546 943 L 546 939 L 547 938 L 547 935 L 549 930 L 549 926 L 550 925 L 550 922 L 551 921 L 551 918 L 552 917 L 552 914 L 554 909 L 554 905 L 555 904 L 555 901 L 556 900 L 556 897 L 558 892 L 558 888 L 559 887 L 559 884 L 561 879 L 561 875 L 562 874 L 562 871 L 564 866 L 564 862 L 565 861 L 565 858 L 566 857 L 566 854 L 568 849 L 568 845 Z M 464 844 L 485 844 L 488 849 L 488 851 L 491 856 L 491 858 L 494 863 L 494 865 L 497 870 L 497 872 L 500 877 L 500 879 L 503 884 L 503 886 L 506 891 L 509 901 L 509 845 L 510 844 L 530 844 L 531 845 L 531 948 L 530 949 L 510 949 L 508 947 L 507 943 L 504 938 L 504 936 L 501 931 L 501 929 L 498 924 L 496 917 L 493 912 L 493 910 L 490 905 L 490 903 L 487 898 L 487 896 L 485 892 L 485 948 L 484 949 L 464 949 L 463 948 L 463 845 Z M 344 844 L 365 844 L 366 845 L 366 948 L 365 949 L 344 949 L 343 948 L 343 845 Z M 952 842 L 967 842 L 968 843 L 971 843 L 979 847 L 987 856 L 990 864 L 990 869 L 991 870 L 991 878 L 990 879 L 970 879 L 969 878 L 969 870 L 968 869 L 968 867 L 964 863 L 956 863 L 954 864 L 951 868 L 951 871 L 950 872 L 950 921 L 951 922 L 951 925 L 955 929 L 961 930 L 966 928 L 969 924 L 969 919 L 970 918 L 970 911 L 969 910 L 961 910 L 959 908 L 959 893 L 961 891 L 989 891 L 991 893 L 991 921 L 990 922 L 990 928 L 989 929 L 988 934 L 985 939 L 979 945 L 976 946 L 974 948 L 972 948 L 968 950 L 964 950 L 963 951 L 950 950 L 941 946 L 931 935 L 931 933 L 929 929 L 929 926 L 928 925 L 928 868 L 929 867 L 929 864 L 932 856 L 939 848 L 948 843 L 951 843 Z M 407 842 L 424 842 L 434 846 L 444 857 L 444 859 L 446 863 L 446 867 L 447 868 L 447 878 L 446 879 L 427 879 L 425 877 L 425 869 L 423 865 L 420 863 L 412 863 L 410 864 L 407 868 L 407 870 L 406 871 L 406 922 L 407 923 L 407 925 L 411 929 L 417 930 L 422 928 L 425 924 L 425 920 L 426 919 L 426 913 L 425 912 L 426 911 L 425 910 L 417 910 L 416 909 L 416 892 L 417 891 L 446 891 L 447 892 L 447 924 L 446 925 L 445 932 L 442 938 L 435 945 L 428 949 L 420 950 L 419 951 L 412 951 L 411 950 L 403 949 L 393 943 L 388 937 L 386 933 L 385 927 L 384 926 L 384 920 L 383 919 L 383 874 L 384 873 L 384 866 L 385 865 L 385 862 L 389 854 L 396 847 L 401 844 L 403 844 Z M 287 842 L 305 842 L 313 845 L 322 853 L 325 859 L 326 866 L 327 867 L 327 875 L 325 877 L 307 877 L 305 875 L 305 869 L 304 868 L 304 866 L 301 863 L 299 863 L 298 862 L 294 862 L 290 864 L 288 868 L 288 873 L 290 878 L 316 894 L 323 901 L 326 906 L 326 908 L 328 912 L 328 927 L 324 937 L 322 940 L 315 946 L 306 950 L 293 951 L 292 950 L 286 950 L 277 946 L 274 944 L 268 937 L 264 926 L 264 915 L 265 914 L 285 914 L 286 915 L 286 919 L 287 920 L 287 924 L 288 926 L 291 929 L 293 929 L 294 930 L 302 929 L 305 925 L 305 916 L 304 914 L 297 908 L 279 898 L 269 888 L 266 881 L 266 877 L 265 876 L 265 866 L 269 855 L 275 848 Z M 525 758 L 525 760 L 523 762 L 520 768 L 499 795 L 495 797 L 490 798 L 487 800 L 482 801 L 479 803 L 474 804 L 471 806 L 469 806 L 462 809 L 460 808 L 466 799 L 471 794 L 474 789 L 479 784 L 487 773 L 491 771 L 493 771 L 498 768 L 500 768 L 514 761 L 521 759 L 524 757 Z M 461 717 L 461 719 L 454 724 L 448 730 L 442 734 L 425 749 L 426 751 L 440 757 L 442 760 L 438 762 L 424 773 L 409 783 L 406 784 L 398 790 L 391 793 L 389 795 L 378 801 L 377 801 L 376 799 L 393 765 L 396 761 L 395 759 L 388 761 L 385 763 L 371 767 L 368 769 L 357 772 L 354 774 L 343 777 L 340 779 L 335 780 L 324 785 L 310 789 L 307 791 L 297 794 L 289 798 L 287 798 L 286 799 L 284 798 L 288 794 L 295 790 L 298 787 L 312 778 L 319 772 L 326 768 L 339 758 L 349 752 L 352 749 L 433 695 L 443 702 Z M 499 719 L 517 704 L 549 680 L 553 678 L 557 674 L 561 672 L 576 660 L 580 658 L 591 649 L 595 647 L 627 623 L 636 618 L 661 637 L 665 639 L 677 649 L 681 651 L 692 660 L 696 662 L 700 666 L 712 674 L 755 707 L 759 709 L 767 716 L 782 726 L 832 692 L 836 692 L 888 731 L 892 735 L 909 747 L 913 751 L 918 754 L 938 771 L 944 775 L 949 780 L 960 788 L 971 798 L 969 799 L 962 795 L 960 795 L 890 760 L 887 760 L 882 763 L 880 763 L 873 767 L 871 767 L 860 773 L 858 773 L 844 780 L 843 779 L 844 775 L 857 759 L 854 759 L 848 763 L 846 762 L 849 758 L 856 744 L 857 739 L 854 739 L 817 758 L 815 758 L 812 760 L 811 759 L 811 757 L 825 730 L 825 728 L 828 723 L 828 721 L 821 723 L 802 733 L 800 733 L 787 740 L 785 740 L 780 743 L 778 743 L 771 747 L 766 746 L 764 744 L 752 738 L 745 733 L 724 722 L 720 726 L 719 729 L 714 735 L 712 739 L 706 745 L 703 746 L 698 750 L 695 751 L 683 759 L 678 761 L 671 766 L 666 768 L 659 773 L 640 783 L 633 788 L 624 792 L 622 794 L 621 792 L 629 780 L 632 777 L 636 770 L 639 767 L 645 757 L 648 754 L 659 737 L 657 736 L 653 739 L 648 741 L 646 743 L 641 745 L 639 747 L 632 750 L 630 752 L 620 757 L 618 756 L 618 754 L 620 752 L 638 717 L 640 715 L 649 697 L 649 695 L 644 696 L 635 702 L 628 705 L 626 707 L 619 710 L 610 716 L 594 724 L 592 724 L 591 723 L 593 718 L 598 711 L 601 704 L 609 692 L 611 687 L 613 685 L 615 680 L 621 671 L 624 664 L 626 662 L 626 659 L 623 660 L 577 695 L 573 697 L 570 700 L 558 708 L 556 707 L 558 702 L 558 700 L 557 699 L 551 702 L 543 704 L 538 707 L 525 711 L 517 715 L 509 717 L 500 721 Z M 159 405 L 179 367 L 208 322 L 212 318 L 214 314 L 229 296 L 229 295 L 241 282 L 241 281 L 254 268 L 254 267 L 282 240 L 283 240 L 290 233 L 291 233 L 312 215 L 324 207 L 331 201 L 355 185 L 358 184 L 370 176 L 375 174 L 377 172 L 392 165 L 394 163 L 402 159 L 404 159 L 419 151 L 421 151 L 426 148 L 428 148 L 431 146 L 433 146 L 438 143 L 443 142 L 446 140 L 454 138 L 457 136 L 459 136 L 475 130 L 478 130 L 479 129 L 481 129 L 485 127 L 488 127 L 489 126 L 492 126 L 496 124 L 499 124 L 500 123 L 503 123 L 504 122 L 507 122 L 512 120 L 516 120 L 521 118 L 541 115 L 542 114 L 548 114 L 549 113 L 561 112 L 562 111 L 570 111 L 571 110 L 579 110 L 580 109 L 590 109 L 591 108 L 606 108 L 607 107 L 648 107 L 649 108 L 665 108 L 666 109 L 676 109 L 677 110 L 693 111 L 694 112 L 700 112 L 701 113 L 706 113 L 707 114 L 712 114 L 713 115 L 718 115 L 719 116 L 733 118 L 734 119 L 737 119 L 738 120 L 741 120 L 742 121 L 745 121 L 746 122 L 749 122 L 750 123 L 765 126 L 769 128 L 772 128 L 773 129 L 799 137 L 802 139 L 807 140 L 810 142 L 812 142 L 815 144 L 822 146 L 840 155 L 842 155 L 880 175 L 921 202 L 937 215 L 942 218 L 947 223 L 948 223 L 959 233 L 960 233 L 968 241 L 969 241 L 1003 275 L 1003 276 L 1010 283 L 1010 284 L 1016 290 L 1016 291 L 1028 305 L 1043 325 L 1059 349 L 1060 352 L 1068 364 L 1070 369 L 1072 371 L 1075 378 L 1077 380 L 1090 406 L 1090 408 L 1095 417 L 1095 419 L 1098 424 L 1098 426 L 1104 439 L 1105 444 L 1107 447 L 1107 449 L 1108 450 L 1108 452 L 1116 474 L 1116 477 L 1119 484 L 1121 495 L 1123 499 L 1123 502 L 1125 507 L 1125 511 L 1126 512 L 1126 516 L 1127 517 L 1128 525 L 1129 526 L 1129 531 L 1130 532 L 1130 536 L 1131 537 L 1132 548 L 1133 549 L 1133 556 L 1134 557 L 1134 564 L 1135 565 L 1135 573 L 1136 574 L 1136 584 L 1137 585 L 1137 600 L 1138 601 L 1138 645 L 1137 646 L 1137 661 L 1136 662 L 1136 672 L 1135 673 L 1134 689 L 1133 690 L 1132 702 L 1131 703 L 1131 707 L 1130 708 L 1130 713 L 1129 714 L 1129 718 L 1128 719 L 1126 733 L 1125 734 L 1125 737 L 1124 738 L 1124 741 L 1123 742 L 1120 757 L 1118 761 L 1118 764 L 1115 771 L 1115 774 L 1114 775 L 1107 798 L 1105 801 L 1105 803 L 1103 806 L 1103 808 L 1101 811 L 1101 813 L 1099 816 L 1097 823 L 1094 828 L 1094 830 L 1089 839 L 1089 841 L 1085 849 L 1083 850 L 1081 848 L 1076 846 L 1071 842 L 1063 838 L 1044 825 L 1041 824 L 1033 818 L 1025 814 L 1010 804 L 1007 801 L 997 795 L 964 770 L 949 760 L 938 751 L 923 741 L 919 737 L 911 732 L 837 677 L 832 677 L 828 679 L 820 685 L 817 686 L 787 706 L 783 708 L 781 708 L 638 602 L 632 602 L 611 618 L 593 630 L 545 666 L 530 676 L 519 685 L 515 687 L 512 690 L 508 692 L 505 695 L 501 697 L 498 700 L 494 702 L 482 711 L 480 711 L 474 706 L 470 704 L 467 701 L 463 699 L 460 696 L 456 694 L 436 679 L 432 679 L 428 681 L 403 698 L 400 699 L 399 698 L 399 423 L 400 422 L 400 305 L 406 299 L 410 292 L 410 289 L 411 288 L 411 278 L 408 270 L 401 262 L 392 258 L 382 258 L 372 262 L 367 267 L 364 272 L 363 278 L 362 279 L 362 289 L 363 290 L 364 295 L 368 301 L 371 303 L 373 306 L 373 714 L 372 715 L 373 716 L 369 720 L 324 750 L 321 751 L 315 756 L 297 768 L 294 769 L 291 772 L 285 775 L 282 778 L 276 781 L 270 786 L 267 787 L 250 799 L 247 800 L 228 813 L 213 821 L 208 825 L 198 830 L 190 836 L 185 838 L 175 845 L 168 848 L 164 851 L 162 849 L 156 837 L 156 835 L 152 828 L 152 826 L 149 821 L 149 819 L 143 806 L 142 801 L 140 798 L 140 796 L 139 795 L 139 793 L 138 792 L 138 790 L 130 768 L 128 758 L 126 754 L 126 751 L 125 750 L 125 747 L 123 742 L 123 738 L 122 737 L 122 734 L 120 729 L 117 709 L 116 708 L 115 696 L 114 695 L 114 689 L 113 688 L 113 681 L 112 680 L 111 659 L 110 658 L 110 593 L 111 592 L 111 579 L 112 578 L 112 570 L 113 569 L 113 562 L 114 561 L 114 554 L 115 553 L 117 536 L 118 535 L 120 521 L 121 520 L 121 517 L 123 512 L 123 508 L 124 507 L 124 504 L 125 503 L 128 488 L 129 487 L 129 485 L 131 481 L 131 478 L 133 474 L 133 471 L 134 470 L 136 462 L 138 459 L 141 448 L 143 445 L 144 440 L 149 430 L 149 428 L 154 418 L 154 416 L 159 407 Z"/>
<path fill="#e9aa28" fill-rule="evenodd" d="M 895 1000 L 895 1009 L 896 1010 L 952 1010 L 953 1009 L 953 999 L 896 999 Z M 301 1000 L 301 1009 L 303 1010 L 360 1010 L 361 1009 L 360 1007 L 360 999 L 302 999 Z M 768 978 L 768 1036 L 780 1036 L 780 1028 L 781 1027 L 780 1017 L 781 1016 L 787 1016 L 789 1018 L 798 1036 L 811 1036 L 806 1025 L 802 1019 L 802 1017 L 800 1015 L 800 1014 L 808 1007 L 809 1001 L 810 1000 L 810 993 L 807 985 L 803 981 L 796 978 Z M 782 988 L 790 988 L 791 989 L 793 989 L 797 993 L 797 1001 L 793 1005 L 791 1006 L 782 1006 L 780 1004 L 781 1003 L 780 1001 L 780 992 L 781 991 L 780 990 Z M 581 978 L 581 1036 L 609 1036 L 616 1033 L 622 1027 L 625 1019 L 625 995 L 622 987 L 616 981 L 608 978 Z M 595 989 L 605 989 L 607 990 L 611 994 L 612 999 L 613 1000 L 613 1014 L 612 1015 L 612 1018 L 608 1024 L 603 1025 L 602 1026 L 600 1025 L 599 1026 L 595 1026 L 594 1025 L 594 990 Z M 522 978 L 522 989 L 536 989 L 537 990 L 537 1036 L 550 1036 L 550 990 L 551 989 L 565 989 L 565 978 Z M 462 978 L 462 1020 L 463 1021 L 463 1025 L 465 1029 L 470 1034 L 476 1037 L 485 1038 L 486 1037 L 492 1037 L 497 1035 L 503 1030 L 505 1026 L 506 1019 L 507 1018 L 507 978 L 494 978 L 494 1019 L 490 1025 L 485 1027 L 484 1026 L 479 1025 L 475 1020 L 475 978 Z M 839 977 L 832 980 L 828 984 L 825 992 L 826 999 L 828 1003 L 834 1008 L 851 1015 L 853 1017 L 854 1021 L 853 1023 L 848 1027 L 843 1027 L 842 1026 L 840 1026 L 836 1022 L 835 1019 L 830 1019 L 829 1020 L 824 1020 L 823 1021 L 826 1029 L 831 1034 L 838 1037 L 843 1037 L 844 1038 L 853 1037 L 861 1033 L 864 1029 L 865 1024 L 866 1023 L 866 1016 L 865 1015 L 865 1013 L 859 1006 L 840 998 L 838 996 L 837 992 L 838 990 L 842 987 L 847 987 L 848 988 L 850 988 L 853 991 L 853 993 L 854 994 L 858 994 L 859 993 L 865 992 L 865 990 L 862 983 L 859 980 L 852 977 Z M 721 977 L 720 978 L 715 979 L 712 981 L 708 985 L 705 991 L 705 994 L 704 995 L 704 1019 L 705 1020 L 706 1026 L 713 1034 L 720 1037 L 725 1037 L 726 1038 L 728 1038 L 729 1037 L 734 1037 L 741 1034 L 747 1028 L 750 1021 L 750 1015 L 751 1014 L 751 999 L 750 998 L 750 993 L 749 992 L 749 990 L 744 982 L 734 977 Z M 724 988 L 731 988 L 733 989 L 736 992 L 737 997 L 738 998 L 738 1017 L 737 1018 L 737 1020 L 733 1025 L 728 1027 L 723 1026 L 718 1021 L 717 1019 L 717 1011 L 716 1010 L 717 995 L 718 993 Z M 658 977 L 649 981 L 645 985 L 642 991 L 642 994 L 641 995 L 641 1020 L 642 1021 L 643 1026 L 650 1034 L 657 1037 L 662 1037 L 663 1038 L 672 1037 L 680 1033 L 686 1025 L 687 1017 L 688 1016 L 688 997 L 687 996 L 687 992 L 683 984 L 677 979 L 675 979 L 671 977 Z M 661 988 L 668 988 L 670 989 L 673 992 L 675 997 L 675 1018 L 673 1022 L 668 1026 L 661 1026 L 659 1025 L 654 1019 L 654 996 L 655 995 L 655 993 Z M 414 977 L 407 980 L 403 983 L 398 992 L 398 995 L 397 996 L 397 1019 L 401 1029 L 408 1035 L 410 1035 L 413 1037 L 418 1037 L 419 1038 L 428 1037 L 435 1034 L 441 1028 L 443 1024 L 443 1022 L 444 1021 L 444 1015 L 445 1014 L 445 1000 L 444 999 L 444 993 L 441 986 L 433 979 L 428 977 Z M 417 988 L 424 988 L 428 990 L 431 995 L 431 998 L 432 999 L 432 1015 L 431 1016 L 431 1019 L 429 1023 L 425 1026 L 417 1026 L 415 1025 L 412 1022 L 410 1017 L 410 997 L 412 992 Z M 647 329 L 628 329 L 627 330 L 611 330 L 610 331 L 586 332 L 585 333 L 575 333 L 574 334 L 564 334 L 563 335 L 553 335 L 552 336 L 534 337 L 533 338 L 524 338 L 523 339 L 515 339 L 514 340 L 505 340 L 504 341 L 496 341 L 495 342 L 484 342 L 483 343 L 472 343 L 471 344 L 460 344 L 459 345 L 447 345 L 446 346 L 444 346 L 444 353 L 445 354 L 445 367 L 446 368 L 446 385 L 447 386 L 447 411 L 448 412 L 448 494 L 447 495 L 446 542 L 445 543 L 444 571 L 443 572 L 443 574 L 444 575 L 446 574 L 452 574 L 453 573 L 460 573 L 461 572 L 468 572 L 469 571 L 489 569 L 490 568 L 496 568 L 497 567 L 509 566 L 510 565 L 517 565 L 518 564 L 523 564 L 524 563 L 529 563 L 530 562 L 535 562 L 536 561 L 542 561 L 543 560 L 548 560 L 549 559 L 554 559 L 555 558 L 561 558 L 562 557 L 568 557 L 569 556 L 574 556 L 575 555 L 581 555 L 582 554 L 587 554 L 588 553 L 594 553 L 595 552 L 601 552 L 602 551 L 608 551 L 609 550 L 615 550 L 616 549 L 623 549 L 624 548 L 631 548 L 632 547 L 638 547 L 639 546 L 647 546 Z M 609 365 L 611 367 L 608 371 L 602 383 L 600 385 L 591 402 L 586 409 L 584 414 L 573 431 L 571 436 L 566 443 L 575 459 L 577 461 L 578 464 L 580 466 L 581 469 L 583 471 L 584 474 L 586 476 L 588 481 L 593 488 L 595 493 L 603 505 L 605 510 L 607 512 L 610 518 L 610 520 L 609 521 L 604 521 L 603 522 L 595 522 L 594 523 L 587 523 L 586 524 L 579 524 L 578 525 L 569 525 L 566 519 L 564 517 L 562 512 L 560 510 L 558 505 L 556 503 L 553 496 L 548 489 L 545 482 L 540 475 L 538 470 L 534 465 L 533 462 L 532 529 L 527 531 L 520 531 L 519 532 L 510 532 L 509 533 L 494 534 L 493 533 L 493 512 L 494 511 L 494 377 L 497 375 L 517 374 L 518 373 L 527 373 L 528 372 L 532 372 L 533 373 L 533 434 L 548 405 L 550 403 L 554 394 L 556 392 L 564 376 L 569 369 Z M 192 413 L 192 415 L 183 433 L 183 435 L 180 440 L 177 450 L 175 453 L 174 458 L 172 461 L 172 463 L 171 464 L 171 466 L 163 488 L 163 491 L 161 495 L 160 502 L 158 506 L 158 509 L 156 514 L 156 518 L 154 523 L 154 527 L 153 528 L 153 532 L 152 533 L 152 537 L 151 538 L 151 542 L 150 543 L 148 561 L 147 562 L 146 578 L 145 579 L 145 590 L 144 591 L 144 607 L 143 608 L 143 647 L 144 648 L 144 664 L 145 665 L 145 675 L 146 676 L 146 684 L 147 685 L 148 699 L 149 700 L 149 705 L 150 706 L 150 710 L 151 711 L 151 716 L 152 717 L 153 726 L 154 727 L 155 735 L 156 736 L 157 743 L 159 747 L 160 754 L 161 755 L 162 761 L 165 768 L 165 771 L 167 774 L 167 777 L 168 778 L 169 783 L 171 786 L 172 791 L 174 794 L 175 799 L 177 802 L 177 804 L 179 807 L 181 814 L 184 819 L 184 821 L 190 832 L 190 834 L 191 834 L 193 832 L 196 831 L 198 829 L 201 828 L 203 826 L 206 825 L 208 823 L 217 818 L 214 813 L 214 811 L 211 806 L 211 804 L 207 796 L 206 791 L 201 780 L 201 778 L 193 756 L 193 753 L 191 749 L 191 746 L 190 745 L 190 742 L 189 741 L 189 738 L 188 737 L 188 734 L 187 733 L 187 730 L 185 725 L 185 721 L 184 720 L 184 716 L 183 715 L 183 711 L 182 710 L 182 706 L 181 705 L 181 700 L 180 699 L 178 679 L 177 678 L 176 658 L 175 657 L 175 636 L 174 635 L 175 595 L 176 594 L 176 584 L 177 583 L 177 575 L 178 574 L 179 560 L 180 559 L 180 554 L 181 553 L 181 549 L 182 548 L 184 534 L 186 529 L 186 525 L 187 524 L 187 521 L 188 520 L 191 505 L 196 492 L 196 489 L 197 488 L 199 480 L 201 477 L 203 469 L 205 466 L 206 461 L 208 458 L 210 451 L 214 444 L 214 442 L 221 429 L 221 427 L 225 419 L 227 417 L 232 406 L 234 404 L 243 387 L 259 363 L 274 343 L 288 327 L 288 326 L 316 297 L 317 297 L 329 285 L 330 285 L 347 270 L 363 258 L 370 254 L 373 251 L 382 246 L 384 244 L 387 243 L 389 241 L 392 240 L 394 238 L 397 237 L 399 235 L 412 229 L 414 227 L 420 224 L 422 224 L 424 222 L 426 222 L 435 217 L 437 217 L 444 213 L 446 213 L 459 207 L 467 205 L 470 203 L 472 203 L 485 198 L 488 198 L 495 195 L 498 195 L 502 193 L 505 193 L 506 192 L 509 192 L 510 191 L 513 191 L 514 190 L 517 190 L 522 188 L 526 188 L 527 187 L 531 187 L 532 186 L 536 186 L 537 185 L 541 185 L 542 184 L 546 184 L 547 183 L 553 183 L 554 182 L 559 182 L 560 181 L 568 181 L 569 180 L 576 180 L 577 179 L 603 178 L 604 177 L 644 177 L 645 178 L 660 178 L 661 179 L 671 179 L 672 180 L 688 181 L 689 182 L 694 182 L 695 183 L 700 183 L 701 184 L 705 184 L 706 185 L 716 186 L 721 188 L 725 188 L 726 189 L 729 189 L 730 190 L 733 190 L 734 191 L 749 194 L 756 197 L 759 197 L 760 198 L 780 204 L 783 206 L 785 206 L 788 208 L 793 209 L 803 214 L 805 214 L 812 218 L 814 218 L 840 231 L 842 233 L 849 236 L 856 241 L 861 243 L 889 262 L 906 276 L 907 276 L 919 287 L 920 287 L 950 316 L 950 317 L 960 327 L 960 328 L 975 345 L 997 375 L 998 378 L 1010 396 L 1017 410 L 1019 412 L 1038 452 L 1038 454 L 1044 467 L 1044 469 L 1045 470 L 1048 481 L 1050 484 L 1051 490 L 1055 500 L 1055 503 L 1057 507 L 1058 514 L 1061 522 L 1061 526 L 1063 531 L 1063 535 L 1064 536 L 1064 540 L 1065 541 L 1065 545 L 1066 546 L 1066 550 L 1067 551 L 1068 563 L 1069 564 L 1069 571 L 1070 572 L 1070 579 L 1071 580 L 1071 590 L 1072 591 L 1072 607 L 1073 608 L 1073 644 L 1072 645 L 1072 661 L 1071 662 L 1071 672 L 1070 673 L 1069 688 L 1068 689 L 1068 694 L 1067 695 L 1067 700 L 1066 701 L 1066 705 L 1065 706 L 1065 711 L 1064 712 L 1062 726 L 1061 727 L 1058 742 L 1056 746 L 1055 753 L 1054 754 L 1045 783 L 1043 786 L 1042 791 L 1040 794 L 1040 796 L 1038 799 L 1036 806 L 1031 816 L 1054 831 L 1058 832 L 1059 830 L 1059 828 L 1064 819 L 1064 817 L 1066 814 L 1066 812 L 1068 809 L 1068 807 L 1071 802 L 1072 797 L 1074 794 L 1074 792 L 1075 791 L 1075 789 L 1076 788 L 1076 786 L 1077 785 L 1077 783 L 1078 782 L 1080 774 L 1082 771 L 1082 768 L 1086 758 L 1087 751 L 1089 747 L 1089 744 L 1090 743 L 1090 740 L 1092 735 L 1092 731 L 1093 730 L 1093 727 L 1095 722 L 1097 708 L 1098 707 L 1099 696 L 1100 695 L 1100 689 L 1101 688 L 1101 683 L 1102 682 L 1102 674 L 1103 673 L 1103 664 L 1104 663 L 1104 649 L 1105 648 L 1105 600 L 1104 599 L 1104 585 L 1103 584 L 1103 575 L 1102 574 L 1101 559 L 1100 558 L 1100 553 L 1099 552 L 1099 547 L 1098 546 L 1098 541 L 1097 540 L 1097 536 L 1096 535 L 1094 521 L 1093 520 L 1093 517 L 1092 516 L 1092 513 L 1091 512 L 1091 509 L 1090 508 L 1087 493 L 1084 486 L 1084 483 L 1083 482 L 1078 465 L 1076 462 L 1073 451 L 1071 448 L 1071 446 L 1069 443 L 1067 436 L 1064 431 L 1064 429 L 1041 383 L 1039 381 L 1035 373 L 1031 368 L 1025 357 L 1016 345 L 1014 341 L 1002 325 L 997 320 L 997 319 L 987 308 L 987 307 L 979 299 L 979 298 L 945 264 L 944 264 L 925 247 L 924 247 L 903 230 L 866 206 L 830 187 L 828 187 L 819 182 L 817 182 L 812 179 L 810 179 L 797 173 L 789 171 L 786 169 L 784 169 L 765 162 L 762 162 L 758 160 L 751 159 L 750 158 L 740 156 L 739 155 L 735 155 L 734 154 L 731 154 L 726 152 L 722 152 L 721 151 L 717 151 L 716 150 L 712 150 L 711 149 L 706 149 L 705 148 L 700 148 L 699 147 L 685 146 L 684 145 L 677 145 L 676 144 L 666 144 L 665 143 L 649 143 L 648 142 L 603 142 L 602 143 L 589 143 L 588 144 L 578 144 L 577 145 L 569 145 L 568 146 L 561 146 L 560 147 L 547 148 L 546 149 L 541 149 L 540 150 L 536 150 L 535 151 L 530 151 L 525 153 L 521 153 L 520 154 L 517 154 L 512 156 L 504 157 L 500 159 L 497 159 L 489 162 L 486 162 L 485 163 L 459 171 L 456 173 L 451 174 L 448 176 L 446 176 L 443 178 L 436 180 L 431 183 L 429 183 L 418 189 L 416 189 L 406 194 L 404 196 L 391 202 L 384 207 L 379 209 L 337 237 L 329 244 L 324 247 L 313 257 L 312 257 L 306 263 L 305 263 L 276 291 L 276 292 L 264 304 L 264 305 L 258 311 L 258 312 L 245 327 L 236 339 L 234 343 L 231 346 L 221 361 L 220 364 L 216 369 L 208 384 L 206 386 Z"/>
<path fill="#848d9a" fill-rule="evenodd" d="M 919 946 L 918 948 L 899 948 L 919 948 Z M 567 946 L 566 948 L 546 948 L 545 947 L 546 948 L 566 948 Z M 869 945 L 869 947 L 868 948 L 849 948 L 848 947 L 848 948 L 868 948 L 869 947 Z M 597 945 L 597 947 L 598 948 L 619 948 L 619 947 L 618 948 L 598 948 L 597 947 Z M 433 945 L 428 948 L 426 948 L 428 948 Z M 593 930 L 594 931 L 594 933 L 594 931 Z M 571 930 L 570 931 L 570 933 L 570 931 Z M 965 929 L 964 930 L 962 930 L 964 930 Z M 838 929 L 838 947 L 837 948 L 791 948 L 838 948 Z M 655 928 L 656 929 L 660 929 L 656 929 Z M 424 927 L 422 929 L 418 930 L 420 930 Z M 265 926 L 265 916 L 266 915 L 285 915 L 265 915 Z M 960 893 L 960 908 L 960 893 L 961 892 L 989 892 L 990 893 L 990 921 L 990 893 L 989 892 L 961 892 Z M 484 891 L 484 892 L 485 891 L 486 893 L 486 892 Z M 748 888 L 771 888 L 772 889 L 772 906 L 771 907 L 772 906 L 772 889 L 771 888 Z M 268 883 L 270 888 L 272 890 L 270 888 Z M 884 874 L 883 874 L 883 876 Z M 326 867 L 326 875 L 325 876 L 307 876 L 306 875 L 306 870 L 306 875 L 307 876 L 325 876 L 326 875 Z M 726 845 L 726 947 L 727 948 L 747 948 L 727 948 L 726 947 Z M 633 845 L 633 947 L 634 948 L 681 948 L 634 948 L 633 947 Z M 530 845 L 530 947 L 529 948 L 510 948 L 508 944 L 510 948 L 530 948 Z M 510 845 L 510 901 L 509 902 L 510 902 Z M 464 845 L 464 948 L 484 948 L 465 948 L 464 947 Z M 344 845 L 344 948 L 365 948 L 345 948 L 344 947 Z M 463 805 L 461 808 L 462 808 L 461 807 Z M 377 799 L 377 800 L 378 800 Z M 287 796 L 288 795 L 287 796 L 289 797 Z M 966 794 L 968 796 L 967 797 L 968 796 L 969 798 L 970 798 Z M 889 759 L 887 759 L 881 762 L 887 759 Z M 438 757 L 441 759 L 439 761 L 441 760 L 441 759 Z M 620 753 L 619 754 L 619 756 L 620 756 L 619 755 Z M 765 744 L 768 746 L 773 745 L 768 746 Z M 853 739 L 854 738 L 857 738 L 854 738 Z M 828 720 L 826 720 L 822 722 L 826 720 Z M 593 720 L 592 723 L 594 723 L 592 722 Z M 503 716 L 501 718 L 502 719 L 500 720 L 503 719 L 501 718 Z M 479 709 L 480 710 L 482 710 L 480 710 Z M 557 707 L 559 706 L 558 707 L 557 706 Z M 861 485 L 861 486 L 866 491 L 861 486 Z M 400 423 L 400 698 L 401 698 L 400 697 Z M 425 318 L 415 318 L 413 320 L 413 329 L 413 320 L 415 318 Z"/>
</svg>