<svg xmlns="http://www.w3.org/2000/svg" width="1254" height="1254" viewBox="0 0 1254 1254">
<path fill="#ffffff" fill-rule="evenodd" d="M 573 942 L 573 978 L 590 978 L 591 977 L 593 977 L 598 973 L 601 966 L 601 953 L 600 952 L 600 950 L 598 947 L 593 943 L 590 943 L 589 942 Z M 847 941 L 847 955 L 866 955 L 870 952 L 870 950 L 871 949 L 870 944 L 866 941 Z M 763 941 L 759 943 L 756 946 L 753 953 L 753 967 L 754 968 L 754 970 L 756 974 L 761 978 L 767 979 L 768 980 L 778 978 L 783 974 L 786 967 L 787 957 L 786 956 L 785 949 L 780 943 L 776 941 Z M 671 941 L 667 943 L 662 949 L 661 955 L 660 956 L 661 968 L 662 969 L 662 971 L 667 977 L 672 979 L 683 979 L 687 977 L 691 973 L 693 969 L 693 966 L 694 965 L 694 954 L 691 947 L 689 944 L 684 941 L 680 941 L 679 940 L 677 940 L 676 941 Z M 331 941 L 326 941 L 325 940 L 324 941 L 318 941 L 313 944 L 309 950 L 309 954 L 308 955 L 308 966 L 309 967 L 310 972 L 312 975 L 316 978 L 318 978 L 319 979 L 330 979 L 336 976 L 340 970 L 340 968 L 341 967 L 341 953 L 338 946 L 335 943 Z M 922 799 L 922 804 L 921 805 L 921 809 L 920 810 L 920 814 L 919 815 L 919 819 L 918 820 L 918 824 L 917 825 L 917 829 L 916 830 L 915 839 L 914 841 L 915 842 L 928 842 L 929 841 L 930 842 L 929 833 L 928 832 L 928 828 L 927 827 L 927 823 L 926 822 L 925 812 L 924 811 L 924 807 L 923 806 L 923 801 Z M 578 799 L 578 801 L 577 802 L 577 807 L 576 808 L 576 812 L 575 813 L 574 823 L 573 824 L 572 832 L 571 833 L 571 837 L 570 838 L 570 842 L 586 842 L 586 838 L 585 837 L 585 833 L 584 832 L 584 828 L 583 827 L 583 822 L 582 821 L 582 817 L 581 816 L 580 806 L 579 805 L 579 801 Z M 593 635 L 576 644 L 574 646 L 563 651 L 554 661 L 554 662 L 538 679 L 544 676 L 546 676 L 556 672 L 563 671 L 568 668 L 572 664 L 572 663 L 589 647 L 591 640 L 593 637 Z M 535 601 L 511 585 L 500 591 L 498 593 L 493 595 L 486 600 L 483 601 L 468 611 L 465 614 L 455 620 L 452 623 L 445 627 L 442 630 L 435 634 L 423 643 L 398 664 L 405 661 L 408 661 L 412 659 L 415 659 L 416 658 L 422 657 L 429 654 L 432 654 L 436 652 L 439 652 L 443 650 L 450 649 L 457 646 L 460 646 L 464 644 L 467 644 L 468 643 L 476 641 L 479 645 L 473 654 L 464 674 L 470 671 L 472 671 L 481 666 L 497 655 L 514 639 L 514 638 L 503 633 L 502 631 L 514 619 L 515 619 L 520 614 L 521 614 L 532 604 L 533 604 Z M 584 600 L 586 600 L 592 597 L 609 592 L 614 589 L 627 585 L 634 581 L 636 581 L 649 575 L 667 563 L 686 544 L 687 544 L 693 538 L 697 536 L 699 538 L 699 542 L 696 546 L 695 549 L 690 556 L 676 572 L 662 593 L 662 594 L 666 593 L 688 582 L 690 580 L 695 578 L 704 572 L 707 572 L 712 578 L 704 591 L 697 600 L 688 617 L 688 618 L 691 617 L 696 613 L 702 610 L 708 605 L 711 607 L 711 609 L 695 633 L 686 643 L 693 639 L 695 639 L 702 635 L 704 635 L 711 631 L 713 631 L 727 623 L 745 607 L 751 598 L 755 594 L 756 595 L 761 596 L 766 599 L 768 599 L 771 601 L 773 601 L 776 603 L 781 604 L 787 607 L 789 609 L 788 614 L 786 616 L 782 624 L 782 627 L 786 624 L 789 623 L 797 616 L 798 616 L 804 610 L 808 603 L 813 597 L 823 600 L 828 603 L 830 603 L 833 605 L 835 605 L 838 607 L 840 607 L 843 609 L 850 611 L 863 618 L 865 618 L 864 616 L 847 600 L 828 589 L 819 581 L 817 580 L 809 580 L 808 579 L 796 579 L 772 561 L 737 539 L 702 512 L 693 517 L 691 519 L 688 520 L 676 529 L 672 531 L 669 534 L 662 538 L 654 545 L 650 547 L 638 557 L 637 557 L 626 567 L 625 567 L 610 580 L 599 588 L 593 594 Z M 0 0 L 0 1253 L 1253 1253 L 1253 0 Z M 826 921 L 867 921 L 868 922 L 874 922 L 883 926 L 890 933 L 892 936 L 892 938 L 894 942 L 894 952 L 893 953 L 893 956 L 891 961 L 884 969 L 881 970 L 881 972 L 887 981 L 893 993 L 895 995 L 895 998 L 894 999 L 893 998 L 891 999 L 872 999 L 868 994 L 858 976 L 847 976 L 847 997 L 845 999 L 844 998 L 827 999 L 825 997 L 825 922 Z M 552 921 L 589 921 L 590 922 L 596 922 L 608 927 L 617 935 L 619 940 L 621 942 L 621 944 L 623 948 L 623 952 L 624 953 L 624 967 L 623 968 L 623 972 L 619 982 L 611 991 L 602 996 L 596 997 L 595 998 L 555 998 L 554 999 L 552 999 L 550 997 L 550 923 Z M 469 921 L 535 921 L 536 922 L 536 941 L 535 942 L 513 942 L 513 997 L 511 999 L 510 998 L 493 999 L 491 997 L 491 993 L 490 992 L 490 946 L 491 945 L 490 943 L 491 942 L 469 942 L 467 940 L 467 923 Z M 382 921 L 402 921 L 403 922 L 403 968 L 404 969 L 405 975 L 408 978 L 413 979 L 414 980 L 419 980 L 424 978 L 428 974 L 428 972 L 429 971 L 429 923 L 431 921 L 450 921 L 452 923 L 452 973 L 451 974 L 451 978 L 450 979 L 449 984 L 439 995 L 435 997 L 433 997 L 429 999 L 425 999 L 424 1000 L 409 1000 L 408 999 L 403 999 L 402 998 L 397 997 L 391 993 L 387 989 L 383 982 L 383 980 L 381 976 L 381 922 Z M 917 925 L 929 920 L 951 920 L 963 925 L 971 933 L 973 938 L 973 941 L 970 943 L 965 943 L 964 944 L 960 944 L 959 945 L 953 945 L 948 939 L 946 939 L 945 938 L 935 938 L 931 941 L 931 944 L 932 945 L 937 947 L 940 947 L 945 949 L 949 949 L 950 950 L 953 950 L 954 951 L 959 952 L 966 956 L 971 961 L 975 971 L 974 982 L 971 988 L 962 996 L 954 999 L 949 999 L 948 1000 L 932 1000 L 931 999 L 927 999 L 926 998 L 923 998 L 915 994 L 906 984 L 906 982 L 904 979 L 904 977 L 906 975 L 909 975 L 910 974 L 917 973 L 918 972 L 922 972 L 923 971 L 925 971 L 928 977 L 934 981 L 946 981 L 951 977 L 951 973 L 950 971 L 946 969 L 942 969 L 941 968 L 937 968 L 936 967 L 932 967 L 931 966 L 924 965 L 916 961 L 909 954 L 907 949 L 907 939 L 910 932 Z M 753 922 L 759 921 L 760 920 L 779 920 L 780 921 L 783 921 L 786 923 L 788 923 L 796 928 L 804 937 L 807 943 L 807 946 L 808 947 L 809 954 L 810 955 L 809 971 L 808 972 L 807 977 L 802 986 L 796 992 L 790 996 L 788 996 L 782 999 L 778 999 L 777 1000 L 762 1000 L 761 999 L 757 999 L 756 998 L 751 997 L 749 995 L 746 994 L 742 991 L 735 983 L 731 973 L 731 970 L 730 969 L 730 950 L 731 949 L 733 941 L 738 933 L 744 927 Z M 661 922 L 667 921 L 668 920 L 687 920 L 688 921 L 693 922 L 701 926 L 711 936 L 714 942 L 714 944 L 716 948 L 716 951 L 717 952 L 717 968 L 716 969 L 716 973 L 715 974 L 714 979 L 711 984 L 701 994 L 693 998 L 691 998 L 690 999 L 685 999 L 684 1000 L 670 1000 L 669 999 L 665 999 L 664 998 L 659 997 L 652 993 L 645 986 L 640 977 L 639 971 L 638 970 L 638 965 L 637 964 L 637 955 L 638 954 L 638 950 L 639 949 L 640 943 L 645 934 L 652 927 Z M 315 920 L 322 920 L 323 919 L 326 919 L 327 920 L 334 920 L 335 921 L 341 922 L 347 925 L 357 934 L 363 946 L 364 954 L 365 955 L 365 964 L 364 965 L 364 971 L 363 972 L 362 977 L 359 983 L 352 991 L 345 996 L 337 999 L 333 999 L 332 1000 L 318 1000 L 317 999 L 312 999 L 311 998 L 309 998 L 301 994 L 297 991 L 291 984 L 286 973 L 286 970 L 285 969 L 285 951 L 286 950 L 287 944 L 291 936 L 301 926 Z M 908 763 L 937 763 L 939 765 L 940 773 L 941 774 L 941 778 L 942 779 L 943 787 L 944 788 L 944 791 L 946 796 L 946 800 L 947 801 L 947 805 L 949 810 L 950 819 L 951 820 L 951 823 L 953 828 L 954 837 L 956 842 L 956 846 L 957 847 L 958 855 L 960 860 L 960 864 L 962 869 L 962 873 L 964 878 L 964 882 L 965 883 L 965 886 L 964 887 L 940 887 L 938 884 L 938 880 L 936 875 L 936 870 L 934 865 L 933 866 L 930 866 L 929 865 L 909 866 L 908 873 L 907 874 L 907 878 L 906 879 L 906 883 L 904 887 L 881 887 L 879 885 L 880 884 L 880 880 L 881 879 L 882 871 L 884 866 L 884 862 L 885 861 L 885 857 L 887 852 L 887 848 L 888 847 L 888 844 L 889 843 L 889 840 L 891 835 L 891 831 L 893 826 L 893 822 L 894 821 L 894 818 L 896 813 L 896 809 L 897 808 L 897 805 L 899 800 L 899 796 L 901 791 L 901 787 L 903 782 L 903 778 L 904 777 L 904 774 L 906 769 L 906 765 Z M 815 763 L 837 763 L 839 765 L 839 863 L 871 863 L 872 864 L 872 886 L 871 887 L 815 887 L 813 885 L 813 765 Z M 799 763 L 801 765 L 801 786 L 800 787 L 764 787 L 764 812 L 796 812 L 797 813 L 797 835 L 796 836 L 764 836 L 764 885 L 762 887 L 740 887 L 738 885 L 738 765 L 740 763 Z M 635 763 L 657 763 L 659 765 L 659 863 L 691 863 L 692 864 L 692 886 L 691 887 L 634 887 L 633 886 L 633 765 Z M 564 763 L 593 763 L 595 765 L 595 769 L 597 774 L 598 783 L 599 784 L 599 787 L 601 792 L 601 796 L 603 801 L 603 805 L 605 810 L 605 814 L 606 815 L 606 818 L 608 823 L 609 832 L 610 833 L 610 836 L 612 841 L 612 845 L 614 850 L 614 854 L 615 855 L 615 858 L 617 863 L 617 867 L 619 872 L 619 876 L 620 877 L 620 880 L 622 885 L 620 887 L 597 887 L 595 885 L 594 877 L 593 876 L 593 872 L 592 871 L 591 866 L 580 866 L 579 865 L 570 865 L 569 866 L 567 866 L 566 865 L 565 866 L 564 874 L 563 875 L 563 879 L 562 880 L 562 884 L 560 887 L 536 887 L 535 886 L 536 879 L 537 878 L 537 874 L 538 873 L 538 870 L 540 865 L 541 856 L 542 855 L 542 852 L 544 847 L 544 843 L 546 838 L 546 834 L 547 833 L 547 830 L 548 829 L 548 826 L 550 821 L 550 817 L 551 816 L 551 813 L 553 808 L 553 804 L 554 803 L 554 800 L 555 799 L 555 796 L 556 795 L 556 792 L 557 791 L 557 788 L 559 783 L 560 774 L 561 773 L 562 766 Z M 445 763 L 469 763 L 472 768 L 472 770 L 474 773 L 474 775 L 479 785 L 479 787 L 481 790 L 481 792 L 483 795 L 484 800 L 489 810 L 490 815 L 492 818 L 492 820 L 494 823 L 494 825 L 497 832 L 497 764 L 498 763 L 520 763 L 522 765 L 522 885 L 520 887 L 497 887 L 495 885 L 493 881 L 492 876 L 487 866 L 487 864 L 481 852 L 481 850 L 479 847 L 479 845 L 477 842 L 475 835 L 472 830 L 472 828 L 468 818 L 468 886 L 467 887 L 445 887 L 443 885 L 443 765 Z M 304 763 L 327 763 L 328 764 L 328 886 L 327 887 L 304 887 L 303 886 L 303 764 Z M 1003 761 L 1019 762 L 1029 766 L 1033 769 L 1039 776 L 1042 782 L 1043 788 L 1044 789 L 1044 803 L 1043 804 L 1021 804 L 1020 803 L 1020 797 L 1019 796 L 1019 792 L 1018 790 L 1015 787 L 1010 785 L 1007 785 L 1006 786 L 1001 787 L 997 793 L 997 797 L 996 798 L 996 853 L 997 854 L 998 860 L 1002 864 L 1004 865 L 1012 865 L 1013 864 L 1015 864 L 1018 861 L 1019 856 L 1020 855 L 1020 842 L 1008 842 L 1006 840 L 1006 821 L 1008 819 L 1043 819 L 1044 820 L 1044 862 L 1043 863 L 1042 869 L 1038 876 L 1032 882 L 1025 886 L 1023 886 L 1019 888 L 1014 888 L 1013 889 L 997 888 L 987 884 L 977 875 L 973 867 L 973 864 L 971 859 L 971 804 L 970 802 L 971 801 L 972 787 L 975 779 L 979 773 L 984 768 L 991 764 L 997 763 L 998 762 L 1002 762 Z M 382 761 L 392 761 L 393 762 L 398 762 L 408 766 L 412 769 L 418 776 L 422 784 L 423 791 L 424 792 L 424 803 L 423 804 L 400 804 L 399 803 L 399 798 L 398 797 L 397 790 L 394 787 L 389 785 L 384 785 L 383 786 L 381 786 L 377 789 L 375 793 L 375 797 L 374 798 L 374 852 L 375 853 L 375 857 L 379 863 L 384 865 L 391 865 L 397 861 L 398 856 L 399 855 L 399 842 L 398 841 L 388 842 L 386 840 L 386 820 L 387 819 L 422 819 L 424 821 L 424 858 L 423 859 L 422 868 L 419 874 L 413 881 L 405 886 L 399 887 L 398 888 L 393 888 L 392 889 L 376 888 L 375 887 L 372 887 L 364 883 L 355 874 L 352 868 L 352 866 L 350 862 L 350 858 L 349 857 L 349 793 L 350 792 L 351 784 L 355 776 L 364 767 L 372 763 L 381 762 Z M 243 761 L 254 761 L 255 762 L 260 762 L 270 766 L 279 774 L 284 784 L 284 788 L 285 789 L 285 803 L 284 804 L 261 804 L 259 802 L 260 801 L 260 796 L 259 795 L 258 789 L 256 787 L 251 785 L 246 785 L 245 786 L 243 786 L 239 790 L 238 799 L 241 805 L 247 809 L 268 819 L 274 823 L 282 832 L 286 842 L 286 848 L 287 849 L 286 862 L 285 863 L 284 869 L 279 877 L 272 883 L 264 887 L 255 888 L 254 889 L 244 889 L 243 888 L 238 888 L 237 887 L 234 887 L 231 885 L 229 885 L 222 880 L 217 874 L 214 868 L 213 861 L 212 860 L 212 847 L 213 846 L 236 846 L 237 847 L 238 859 L 239 861 L 244 865 L 254 865 L 259 861 L 259 859 L 260 858 L 260 848 L 258 844 L 250 838 L 248 838 L 246 836 L 231 829 L 224 824 L 217 816 L 213 805 L 213 788 L 214 787 L 214 784 L 216 781 L 216 779 L 219 774 L 228 766 L 234 763 L 242 762 Z M 368 252 L 370 250 L 884 250 L 885 251 L 885 718 L 884 719 L 374 719 L 373 720 L 370 720 L 368 718 Z"/>
<path fill="#113053" fill-rule="evenodd" d="M 827 923 L 826 924 L 826 996 L 827 997 L 845 997 L 845 976 L 847 974 L 858 974 L 862 979 L 865 986 L 867 988 L 872 997 L 894 997 L 879 971 L 880 969 L 883 968 L 888 963 L 890 960 L 891 954 L 892 953 L 892 942 L 891 941 L 891 938 L 887 931 L 878 925 L 870 924 L 869 923 Z M 845 941 L 847 939 L 865 939 L 866 940 L 868 940 L 872 945 L 872 951 L 868 956 L 866 956 L 865 957 L 847 957 L 845 955 Z M 552 923 L 552 997 L 589 997 L 590 996 L 600 995 L 610 990 L 618 981 L 622 970 L 622 950 L 621 949 L 621 946 L 616 936 L 607 928 L 596 924 L 592 924 L 591 923 Z M 573 940 L 588 940 L 589 941 L 592 941 L 596 943 L 601 949 L 602 955 L 603 956 L 602 968 L 599 974 L 594 978 L 589 980 L 572 980 L 571 979 L 571 942 Z M 469 923 L 469 940 L 491 940 L 492 941 L 492 997 L 511 997 L 512 996 L 512 941 L 513 940 L 535 940 L 535 923 Z M 383 923 L 382 924 L 382 971 L 383 972 L 383 977 L 387 987 L 393 993 L 399 996 L 406 997 L 407 998 L 425 998 L 426 997 L 430 997 L 431 996 L 436 995 L 439 993 L 446 986 L 449 980 L 449 976 L 450 975 L 450 923 L 431 923 L 431 970 L 429 975 L 422 981 L 411 981 L 407 979 L 403 974 L 403 972 L 402 971 L 402 923 Z M 918 926 L 912 932 L 909 939 L 909 949 L 913 957 L 917 960 L 927 964 L 947 968 L 953 973 L 953 977 L 948 982 L 946 982 L 945 983 L 935 983 L 929 980 L 924 973 L 921 973 L 920 974 L 912 975 L 911 976 L 906 977 L 906 980 L 909 986 L 916 993 L 926 997 L 929 997 L 930 998 L 949 998 L 950 997 L 958 996 L 964 993 L 970 987 L 973 979 L 973 970 L 970 962 L 965 957 L 957 953 L 954 953 L 950 951 L 946 951 L 941 949 L 937 949 L 932 947 L 929 944 L 929 941 L 935 936 L 944 936 L 945 937 L 947 937 L 949 938 L 954 944 L 955 943 L 959 943 L 960 942 L 971 941 L 972 940 L 971 939 L 971 937 L 967 930 L 958 924 L 952 923 L 951 922 L 945 922 L 944 921 L 929 922 Z M 759 922 L 745 928 L 739 934 L 734 943 L 733 949 L 732 950 L 732 955 L 731 956 L 731 964 L 732 965 L 732 971 L 733 972 L 734 977 L 739 986 L 744 991 L 753 996 L 759 997 L 760 998 L 779 998 L 780 997 L 786 996 L 795 991 L 801 985 L 802 982 L 804 980 L 804 978 L 807 972 L 807 967 L 808 966 L 808 953 L 807 952 L 807 948 L 800 934 L 792 927 L 786 924 L 780 923 L 779 922 L 773 922 L 772 921 Z M 764 939 L 775 939 L 780 941 L 785 946 L 788 953 L 788 967 L 787 968 L 787 970 L 782 977 L 774 981 L 764 981 L 758 978 L 753 972 L 752 966 L 751 965 L 751 955 L 752 954 L 753 948 L 758 942 Z M 667 922 L 653 928 L 646 935 L 641 944 L 641 947 L 639 952 L 639 968 L 640 969 L 641 976 L 646 985 L 653 992 L 656 993 L 658 995 L 660 995 L 664 997 L 668 997 L 669 998 L 686 998 L 687 997 L 690 997 L 691 996 L 696 995 L 700 993 L 706 988 L 706 987 L 710 983 L 714 974 L 714 971 L 715 970 L 715 951 L 714 950 L 714 947 L 713 946 L 712 941 L 705 931 L 694 924 L 688 923 L 687 922 L 682 922 L 681 921 Z M 671 939 L 683 939 L 687 941 L 693 947 L 695 952 L 695 955 L 696 956 L 696 964 L 695 965 L 694 971 L 688 978 L 682 981 L 673 981 L 666 978 L 661 972 L 659 967 L 659 954 L 660 953 L 660 950 L 663 945 Z M 311 923 L 302 927 L 298 930 L 292 937 L 289 943 L 288 949 L 287 950 L 287 954 L 286 955 L 286 964 L 287 965 L 287 971 L 288 972 L 289 977 L 295 987 L 302 993 L 306 995 L 308 995 L 312 997 L 315 997 L 316 998 L 333 998 L 334 997 L 341 996 L 350 991 L 356 985 L 361 976 L 362 968 L 363 967 L 363 952 L 362 951 L 362 948 L 361 947 L 360 942 L 356 935 L 349 928 L 342 924 L 336 923 L 335 922 L 329 922 L 328 921 L 321 921 L 320 922 Z M 319 939 L 330 939 L 331 940 L 333 940 L 339 945 L 342 950 L 342 953 L 343 954 L 343 966 L 342 967 L 341 972 L 337 977 L 329 981 L 320 981 L 315 979 L 309 973 L 306 965 L 306 956 L 307 955 L 307 951 L 309 947 L 315 941 Z M 908 765 L 908 768 L 906 773 L 906 777 L 905 778 L 905 781 L 903 786 L 903 790 L 901 795 L 900 804 L 899 805 L 899 808 L 898 809 L 898 812 L 896 817 L 896 821 L 895 822 L 895 825 L 893 830 L 893 834 L 891 839 L 891 843 L 890 844 L 890 847 L 888 852 L 888 856 L 886 861 L 885 870 L 884 871 L 884 874 L 883 875 L 881 885 L 903 885 L 904 884 L 904 880 L 905 879 L 905 875 L 906 874 L 907 866 L 909 864 L 935 864 L 937 866 L 937 870 L 938 871 L 940 885 L 963 885 L 962 877 L 961 876 L 960 868 L 958 863 L 958 859 L 957 858 L 957 855 L 955 850 L 953 836 L 952 835 L 951 827 L 950 826 L 950 823 L 948 818 L 947 809 L 945 804 L 945 800 L 943 795 L 943 791 L 941 786 L 941 782 L 939 777 L 939 773 L 938 772 L 937 765 Z M 922 796 L 924 797 L 925 807 L 926 808 L 926 812 L 927 813 L 927 818 L 928 819 L 928 823 L 930 828 L 930 833 L 931 834 L 931 839 L 932 840 L 932 842 L 931 843 L 913 843 L 912 842 L 913 840 L 913 836 L 914 835 L 914 831 L 915 830 L 915 826 L 916 825 L 916 821 L 917 820 L 917 816 L 919 811 L 920 801 Z M 815 765 L 815 885 L 870 885 L 870 864 L 869 865 L 839 865 L 837 863 L 837 765 Z M 799 765 L 740 765 L 740 885 L 762 885 L 762 836 L 763 835 L 795 835 L 795 814 L 764 814 L 762 812 L 762 787 L 763 786 L 770 786 L 771 785 L 776 785 L 777 786 L 792 786 L 793 785 L 797 785 L 798 786 L 799 785 Z M 635 765 L 635 885 L 691 885 L 690 884 L 691 883 L 691 865 L 690 864 L 689 865 L 679 865 L 678 864 L 672 864 L 671 865 L 660 865 L 657 863 L 657 765 Z M 564 765 L 563 772 L 561 777 L 561 781 L 560 782 L 560 785 L 558 790 L 558 794 L 557 795 L 557 798 L 556 799 L 556 802 L 554 807 L 554 811 L 553 812 L 553 815 L 551 820 L 551 824 L 550 825 L 550 828 L 548 833 L 548 837 L 547 838 L 547 841 L 545 846 L 545 850 L 543 855 L 543 859 L 542 860 L 542 864 L 541 865 L 541 868 L 539 873 L 539 877 L 538 878 L 537 885 L 560 885 L 561 877 L 562 876 L 562 872 L 565 864 L 592 864 L 593 865 L 593 869 L 594 870 L 594 874 L 595 875 L 595 879 L 596 880 L 597 885 L 620 885 L 593 765 Z M 578 795 L 580 798 L 581 808 L 582 809 L 582 813 L 583 814 L 583 819 L 584 820 L 584 824 L 585 825 L 585 829 L 586 830 L 586 834 L 587 835 L 587 839 L 588 840 L 588 842 L 587 843 L 569 843 L 568 842 L 569 835 L 571 830 L 571 826 L 572 825 L 572 820 L 574 815 L 575 804 L 576 803 L 576 800 Z M 445 765 L 445 885 L 467 885 L 466 884 L 467 883 L 467 817 L 468 816 L 473 826 L 473 828 L 475 831 L 477 838 L 480 843 L 480 845 L 482 848 L 484 855 L 487 860 L 487 862 L 490 867 L 490 869 L 492 872 L 492 874 L 497 885 L 520 885 L 520 765 L 499 765 L 499 834 L 498 835 L 496 834 L 494 830 L 490 817 L 487 812 L 484 802 L 482 799 L 482 797 L 480 794 L 480 792 L 478 789 L 478 787 L 476 784 L 476 782 L 474 779 L 474 777 L 471 772 L 471 770 L 468 765 Z M 305 765 L 305 885 L 327 885 L 326 884 L 326 872 L 327 871 L 327 862 L 326 861 L 326 847 L 327 846 L 327 844 L 326 843 L 326 797 L 327 796 L 327 783 L 326 782 L 326 780 L 327 779 L 327 767 L 326 766 L 327 765 Z M 1002 763 L 1001 764 L 993 765 L 984 770 L 980 774 L 975 783 L 974 790 L 973 791 L 973 798 L 972 799 L 972 853 L 973 854 L 973 860 L 974 861 L 974 864 L 975 865 L 976 870 L 979 875 L 984 880 L 996 886 L 1001 886 L 1002 887 L 1014 887 L 1015 886 L 1020 886 L 1021 885 L 1023 885 L 1031 881 L 1037 875 L 1041 868 L 1041 866 L 1042 865 L 1042 859 L 1043 858 L 1043 821 L 1008 821 L 1008 840 L 1020 840 L 1021 841 L 1021 858 L 1019 862 L 1016 865 L 1012 867 L 1005 867 L 1004 866 L 1002 866 L 997 861 L 995 857 L 995 852 L 994 851 L 994 802 L 995 801 L 995 794 L 998 788 L 1001 785 L 1003 784 L 1013 784 L 1015 785 L 1020 791 L 1020 793 L 1021 794 L 1021 803 L 1042 803 L 1043 802 L 1043 793 L 1042 792 L 1041 783 L 1038 777 L 1032 770 L 1023 765 L 1020 765 L 1019 764 L 1015 764 L 1014 763 Z M 380 763 L 379 764 L 375 764 L 374 765 L 369 766 L 364 769 L 357 776 L 353 783 L 353 786 L 351 790 L 351 797 L 350 798 L 350 852 L 351 853 L 351 859 L 352 860 L 352 863 L 353 864 L 354 869 L 356 873 L 361 879 L 367 883 L 375 886 L 380 886 L 381 887 L 394 887 L 395 886 L 399 886 L 409 882 L 416 876 L 419 871 L 419 869 L 421 865 L 421 862 L 422 861 L 422 821 L 387 821 L 387 840 L 399 840 L 401 842 L 401 851 L 400 852 L 400 858 L 396 864 L 390 867 L 384 867 L 383 866 L 381 866 L 376 862 L 373 856 L 373 848 L 372 847 L 372 805 L 373 804 L 373 795 L 375 790 L 380 785 L 382 784 L 392 784 L 394 785 L 399 791 L 399 793 L 400 794 L 400 803 L 422 803 L 422 790 L 417 777 L 415 774 L 408 768 L 402 765 L 395 764 L 394 763 Z M 242 763 L 241 764 L 234 765 L 226 769 L 218 778 L 216 783 L 216 786 L 215 787 L 215 792 L 214 793 L 215 806 L 216 807 L 216 810 L 218 815 L 225 823 L 234 829 L 253 838 L 260 844 L 262 849 L 262 858 L 260 862 L 257 865 L 253 867 L 244 867 L 238 862 L 236 858 L 236 848 L 235 847 L 215 847 L 214 848 L 214 862 L 218 873 L 220 876 L 227 882 L 231 884 L 233 884 L 237 886 L 241 886 L 242 887 L 256 887 L 257 886 L 261 886 L 271 882 L 274 880 L 280 873 L 283 867 L 283 865 L 284 864 L 284 859 L 285 858 L 285 847 L 284 846 L 284 841 L 281 833 L 273 824 L 267 820 L 244 809 L 238 803 L 237 801 L 237 791 L 243 784 L 251 783 L 256 785 L 259 788 L 261 792 L 261 802 L 283 802 L 283 788 L 279 777 L 277 774 L 269 767 L 261 764 L 257 764 L 256 763 Z M 456 332 L 455 333 L 455 501 L 490 501 L 490 433 L 491 432 L 493 433 L 501 450 L 503 452 L 507 461 L 509 463 L 515 476 L 517 478 L 522 489 L 524 491 L 529 501 L 567 501 L 523 414 L 531 397 L 533 395 L 540 380 L 542 378 L 555 351 L 557 349 L 565 333 L 564 332 L 563 333 L 547 333 L 546 332 L 532 332 L 531 333 L 527 333 L 505 378 L 503 380 L 495 397 L 491 402 L 490 401 L 490 333 L 489 332 L 465 332 L 464 333 L 458 333 Z M 370 252 L 370 718 L 883 718 L 883 252 Z M 595 634 L 593 642 L 590 648 L 565 672 L 555 674 L 554 675 L 543 678 L 538 681 L 536 680 L 536 679 L 553 661 L 553 660 L 562 650 L 571 646 L 573 644 L 578 642 L 580 640 L 587 637 L 593 633 Z M 537 601 L 534 605 L 533 605 L 528 610 L 527 610 L 522 615 L 521 615 L 516 620 L 509 625 L 504 631 L 504 632 L 510 635 L 512 635 L 515 637 L 516 639 L 494 659 L 482 667 L 469 674 L 467 674 L 464 676 L 462 675 L 464 672 L 467 662 L 477 645 L 476 643 L 466 645 L 462 647 L 459 647 L 458 648 L 452 649 L 448 651 L 445 651 L 441 653 L 438 653 L 437 654 L 435 654 L 431 656 L 428 656 L 424 658 L 421 658 L 414 661 L 407 662 L 397 666 L 396 665 L 398 662 L 405 657 L 411 651 L 412 651 L 426 639 L 430 637 L 434 633 L 441 629 L 444 626 L 451 622 L 454 619 L 461 615 L 464 612 L 482 600 L 485 599 L 487 597 L 490 596 L 492 594 L 502 589 L 511 583 L 525 593 L 531 596 Z M 582 600 L 592 593 L 598 587 L 599 587 L 614 574 L 630 562 L 641 552 L 661 537 L 665 535 L 672 529 L 702 510 L 731 533 L 735 535 L 747 544 L 750 545 L 755 549 L 766 555 L 796 577 L 807 577 L 808 578 L 815 578 L 816 579 L 819 579 L 829 588 L 835 592 L 842 595 L 849 600 L 865 615 L 867 619 L 866 620 L 864 620 L 853 614 L 851 614 L 848 612 L 846 612 L 843 610 L 841 610 L 838 608 L 831 606 L 819 600 L 813 599 L 805 611 L 799 617 L 798 617 L 790 624 L 781 629 L 780 628 L 781 622 L 788 610 L 779 605 L 774 604 L 764 599 L 762 599 L 755 596 L 750 603 L 728 624 L 712 633 L 710 633 L 685 645 L 684 644 L 685 642 L 693 633 L 709 610 L 709 607 L 708 607 L 692 618 L 687 620 L 686 618 L 694 602 L 709 581 L 710 577 L 707 574 L 704 574 L 695 579 L 693 581 L 684 585 L 682 587 L 668 594 L 666 594 L 661 596 L 660 594 L 664 586 L 670 579 L 672 575 L 689 555 L 695 546 L 698 540 L 697 538 L 688 544 L 668 564 L 652 575 L 629 586 L 619 589 L 616 591 L 606 594 L 603 596 L 600 596 L 597 598 L 595 598 L 591 600 L 588 600 L 585 602 L 583 602 Z M 404 284 L 611 284 L 612 285 L 612 547 L 611 548 L 404 548 L 403 547 L 403 285 Z"/>
<path fill="#e9b035" fill-rule="evenodd" d="M 404 285 L 404 547 L 611 547 L 611 285 Z M 455 331 L 490 331 L 491 332 L 491 401 L 494 395 L 496 393 L 505 374 L 507 372 L 507 370 L 509 368 L 526 333 L 528 331 L 565 331 L 566 332 L 551 363 L 549 365 L 540 384 L 538 386 L 524 414 L 555 476 L 557 478 L 557 480 L 559 482 L 560 486 L 562 488 L 568 500 L 567 502 L 529 502 L 526 499 L 525 495 L 523 493 L 518 482 L 516 480 L 511 469 L 509 467 L 503 454 L 501 452 L 496 441 L 494 439 L 491 433 L 491 501 L 490 502 L 455 502 L 454 501 L 454 332 Z"/>
<path fill="#8897a9" fill-rule="evenodd" d="M 871 997 L 872 998 L 891 998 L 872 998 Z M 826 997 L 827 998 L 833 998 L 827 998 Z M 695 996 L 690 998 L 687 998 L 690 998 Z M 307 996 L 312 998 L 315 998 L 312 998 Z M 734 978 L 736 983 L 742 990 L 738 986 Z M 908 976 L 906 976 L 905 977 L 905 979 L 905 977 L 906 976 Z M 858 975 L 859 976 L 858 975 L 847 975 L 846 976 L 846 997 L 845 998 L 846 997 L 846 976 L 847 975 Z M 428 975 L 424 979 L 420 980 L 424 979 Z M 951 972 L 952 973 L 952 977 L 948 981 L 947 981 L 948 981 L 952 977 L 952 973 Z M 923 972 L 924 972 L 927 976 L 925 972 Z M 787 963 L 787 967 L 784 973 L 787 967 Z M 732 947 L 732 949 L 731 950 L 731 955 L 731 950 L 732 949 Z M 339 947 L 341 950 L 341 952 L 341 950 Z M 690 945 L 692 947 L 693 950 L 692 947 Z M 777 941 L 780 942 L 784 946 L 780 942 Z M 573 941 L 588 941 L 573 941 L 572 942 L 572 979 L 589 979 L 573 979 L 572 978 L 572 942 Z M 846 941 L 847 940 L 865 940 L 847 940 L 846 941 L 846 955 L 847 956 L 865 956 L 847 956 L 846 955 Z M 668 942 L 671 940 L 676 940 L 671 940 Z M 892 939 L 892 941 L 893 942 L 893 952 L 893 942 L 892 941 Z M 930 941 L 935 937 L 944 937 L 935 937 L 930 941 L 930 944 L 932 946 L 937 948 L 940 948 L 937 948 L 932 946 L 930 944 Z M 801 935 L 803 937 L 806 943 L 806 945 L 806 943 L 803 937 Z M 738 935 L 736 937 L 734 942 L 736 937 Z M 968 931 L 970 933 L 971 936 L 970 933 Z M 917 926 L 911 932 L 908 939 L 908 949 L 910 954 L 912 956 L 910 954 L 908 949 L 908 939 L 911 932 Z M 787 924 L 792 926 L 794 928 L 792 926 Z M 826 923 L 827 922 L 867 922 L 826 922 Z M 758 922 L 753 923 L 746 927 L 753 923 Z M 666 922 L 661 923 L 654 927 L 661 923 Z M 589 922 L 552 922 L 551 923 L 551 997 L 552 998 L 554 998 L 552 998 L 551 997 L 551 923 L 552 922 Z M 468 940 L 469 941 L 491 941 L 469 941 L 468 940 L 468 923 L 469 922 L 535 922 L 469 922 L 468 923 Z M 431 922 L 430 923 L 430 970 L 430 923 L 431 922 L 450 922 L 451 923 L 451 973 L 451 923 L 450 922 Z M 382 923 L 383 922 L 402 922 L 382 922 Z M 945 921 L 951 921 L 952 922 L 954 922 L 952 922 L 951 921 Z M 926 922 L 928 922 L 929 921 L 934 921 L 929 921 L 928 922 Z M 773 921 L 779 921 L 780 922 L 785 923 L 780 922 L 779 921 Z M 682 921 L 687 921 L 688 922 L 690 922 L 688 922 L 687 921 Z M 312 922 L 314 922 L 315 921 L 320 921 L 315 921 L 314 922 Z M 880 885 L 881 886 L 904 886 L 904 885 L 903 886 L 881 886 Z M 596 884 L 597 886 L 620 886 L 621 885 L 620 886 L 597 886 Z M 536 884 L 536 886 L 560 886 L 537 886 Z M 964 883 L 964 885 L 963 886 L 940 886 L 964 886 Z M 408 883 L 405 885 L 400 886 L 405 885 Z M 985 881 L 987 883 L 992 885 L 987 883 Z M 1014 865 L 1012 866 L 1005 866 L 1012 866 Z M 935 865 L 936 866 L 936 869 L 936 866 Z M 908 868 L 908 866 L 909 865 L 921 865 L 909 865 L 908 866 Z M 580 865 L 591 865 L 592 867 L 592 865 Z M 380 864 L 384 866 L 390 866 L 384 866 Z M 239 862 L 244 866 L 253 866 L 244 866 Z M 998 861 L 1002 865 L 1003 865 L 1002 865 Z M 261 849 L 261 858 L 260 860 L 261 858 Z M 214 847 L 213 847 L 213 860 L 213 848 Z M 913 841 L 913 842 L 914 842 Z M 399 841 L 400 842 L 400 851 L 400 842 Z M 256 841 L 259 844 L 260 847 L 259 844 Z M 1007 840 L 1008 841 L 1020 841 L 1008 841 L 1007 840 L 1007 821 L 1008 820 L 1043 820 L 1008 820 L 1007 821 Z M 387 820 L 422 820 L 423 821 L 423 858 L 423 821 L 422 820 Z M 922 797 L 923 800 L 923 797 Z M 284 789 L 284 802 L 283 803 L 261 803 L 260 802 L 261 803 L 284 803 Z M 763 787 L 763 812 L 764 813 L 795 813 L 796 814 L 796 835 L 796 813 L 764 813 L 763 812 Z M 1011 785 L 1015 786 L 1018 789 L 1015 786 Z M 1006 785 L 1003 785 L 999 788 L 1003 785 Z M 390 785 L 394 786 L 397 789 L 394 786 Z M 245 785 L 243 785 L 239 789 L 243 785 Z M 247 784 L 254 785 L 258 788 L 254 785 Z M 366 767 L 364 768 L 355 778 L 356 776 Z M 1024 765 L 1029 767 L 1031 769 L 1029 767 Z M 992 765 L 987 767 L 980 773 L 984 769 Z M 403 765 L 408 767 L 410 769 L 408 767 Z M 907 765 L 907 768 L 907 765 L 908 764 L 937 764 L 938 765 L 939 772 L 939 769 L 937 764 L 908 764 Z M 815 764 L 837 764 L 838 765 L 838 863 L 839 864 L 869 864 L 839 864 L 838 863 L 838 765 L 837 764 L 815 764 L 814 765 L 814 885 L 815 886 L 871 886 L 871 864 L 871 885 L 870 886 L 815 886 L 814 885 L 814 765 Z M 799 764 L 800 765 L 800 785 L 799 786 L 800 786 L 800 765 L 799 764 L 740 764 L 739 765 L 739 885 L 740 886 L 762 886 L 763 885 L 763 836 L 763 885 L 762 886 L 740 886 L 739 885 L 739 765 L 740 764 Z M 635 764 L 657 764 L 658 765 L 658 863 L 658 765 L 657 764 L 635 764 L 634 765 L 634 886 L 691 886 L 635 886 L 634 885 L 634 765 Z M 564 764 L 593 764 L 594 765 L 594 767 L 594 765 L 593 764 Z M 498 764 L 498 832 L 497 833 L 495 829 L 497 834 L 498 834 L 498 765 L 499 764 L 520 764 L 521 765 L 521 885 L 520 886 L 497 886 L 494 881 L 497 886 L 520 886 L 521 885 L 521 765 L 520 764 Z M 445 764 L 468 764 L 471 768 L 469 764 L 445 764 L 444 765 L 444 885 L 445 886 L 467 886 L 445 886 L 444 885 L 444 765 Z M 304 764 L 304 886 L 327 886 L 305 886 L 304 885 L 304 765 L 305 764 L 327 764 Z M 236 764 L 234 764 L 227 768 L 234 764 Z M 541 675 L 537 679 L 537 680 L 538 680 L 537 679 Z M 400 664 L 398 663 L 397 665 L 398 663 Z M 475 642 L 478 644 L 476 648 L 478 644 Z M 515 638 L 515 639 L 511 643 L 515 639 Z M 593 634 L 594 635 L 594 634 Z M 696 630 L 686 642 L 687 643 L 685 644 L 694 640 L 688 643 L 686 642 Z M 507 627 L 503 631 L 503 632 L 503 631 Z M 687 618 L 687 619 L 688 619 Z M 866 618 L 865 617 L 866 618 L 864 619 L 866 619 Z M 708 606 L 707 607 L 709 606 L 710 607 L 710 609 L 710 607 Z M 583 600 L 583 601 L 585 601 Z M 535 600 L 536 602 L 534 604 L 536 602 Z M 812 599 L 813 598 L 815 598 L 813 598 Z M 661 594 L 661 595 L 662 595 Z M 514 586 L 511 584 L 506 587 L 511 584 Z M 818 580 L 819 580 L 824 585 L 819 580 Z M 795 577 L 796 578 L 807 578 L 796 578 Z M 701 575 L 704 573 L 707 573 L 710 576 L 707 573 L 704 573 Z M 703 512 L 702 511 L 699 513 L 702 511 Z M 369 252 L 369 718 L 370 719 L 373 719 L 370 719 L 369 718 L 369 252 L 370 251 L 883 251 L 884 252 L 884 718 L 884 251 L 370 251 Z"/>
</svg>