<svg xmlns="http://www.w3.org/2000/svg" width="1254" height="1254" viewBox="0 0 1254 1254">
<path fill="#ffffff" fill-rule="evenodd" d="M 0 0 L 0 1253 L 1253 1253 L 1253 0 Z M 999 383 L 1000 384 L 1000 389 L 999 390 L 998 397 L 997 398 L 996 404 L 994 408 L 994 411 L 993 412 L 985 438 L 980 449 L 979 454 L 976 459 L 976 461 L 971 471 L 971 473 L 967 480 L 967 482 L 953 510 L 951 512 L 948 519 L 946 521 L 944 526 L 940 531 L 935 540 L 943 551 L 951 560 L 951 561 L 969 582 L 969 583 L 1018 641 L 1018 646 L 996 665 L 966 686 L 961 688 L 959 690 L 950 694 L 948 696 L 942 699 L 940 699 L 927 706 L 925 706 L 917 710 L 912 711 L 909 713 L 907 713 L 900 716 L 897 716 L 887 720 L 872 723 L 871 724 L 861 725 L 860 726 L 856 726 L 855 727 L 837 728 L 836 729 L 797 729 L 796 728 L 791 728 L 790 727 L 786 727 L 781 725 L 775 720 L 772 713 L 772 706 L 771 705 L 771 687 L 770 686 L 770 682 L 773 678 L 827 678 L 828 679 L 845 679 L 846 680 L 852 680 L 856 684 L 856 687 L 854 690 L 839 698 L 837 700 L 832 702 L 830 704 L 825 706 L 818 711 L 824 708 L 826 708 L 827 707 L 832 706 L 835 704 L 837 704 L 840 702 L 842 702 L 861 693 L 864 691 L 875 680 L 876 678 L 876 574 L 875 573 L 874 525 L 873 524 L 873 506 L 872 505 L 872 489 L 871 488 L 870 453 L 869 452 L 869 438 L 868 437 L 867 414 L 870 411 L 886 410 L 887 409 L 896 409 L 897 408 L 909 407 L 910 406 L 914 406 L 915 405 L 920 405 L 921 404 L 930 403 L 931 402 L 934 402 L 935 401 L 950 398 L 954 396 L 957 396 L 964 393 L 967 393 L 973 390 L 986 386 L 994 382 Z M 433 329 L 436 326 L 565 325 L 566 324 L 632 324 L 633 323 L 738 323 L 739 324 L 761 324 L 762 325 L 772 325 L 773 326 L 780 326 L 781 327 L 787 327 L 788 328 L 797 329 L 798 330 L 801 330 L 802 331 L 813 334 L 818 337 L 820 337 L 829 343 L 840 354 L 847 367 L 847 369 L 849 372 L 849 375 L 851 379 L 851 383 L 852 384 L 852 388 L 853 389 L 853 394 L 854 395 L 854 402 L 855 403 L 856 422 L 857 423 L 857 436 L 858 437 L 858 453 L 859 454 L 860 487 L 861 488 L 861 508 L 862 509 L 862 525 L 863 526 L 863 544 L 864 545 L 864 569 L 865 570 L 866 609 L 867 610 L 868 647 L 869 648 L 869 672 L 866 675 L 861 675 L 858 673 L 856 673 L 843 668 L 839 668 L 838 667 L 834 667 L 833 666 L 820 665 L 819 664 L 811 664 L 810 663 L 796 663 L 795 662 L 671 662 L 670 663 L 654 663 L 653 664 L 626 665 L 625 666 L 616 666 L 615 667 L 604 667 L 603 668 L 594 668 L 593 669 L 583 669 L 582 670 L 574 670 L 573 671 L 555 672 L 554 673 L 547 673 L 546 674 L 538 674 L 537 675 L 529 675 L 528 676 L 514 677 L 513 678 L 507 678 L 506 679 L 499 679 L 498 680 L 492 680 L 491 681 L 485 681 L 484 682 L 478 682 L 477 683 L 472 683 L 471 684 L 465 684 L 464 685 L 459 685 L 458 686 L 446 687 L 445 688 L 441 688 L 440 689 L 434 689 L 431 686 L 431 680 L 432 679 L 432 672 L 433 671 L 434 650 L 435 649 L 435 640 L 436 639 L 436 627 L 437 626 L 438 572 L 439 571 L 439 543 L 440 542 L 440 458 L 439 457 L 439 420 L 438 419 L 437 376 L 436 375 L 436 361 L 435 360 L 435 350 L 434 349 L 434 336 L 433 335 Z M 383 239 L 404 239 L 405 240 L 411 241 L 420 249 L 422 252 L 422 254 L 424 258 L 424 275 L 423 276 L 423 281 L 422 282 L 422 286 L 421 287 L 420 294 L 418 298 L 418 301 L 416 305 L 416 308 L 415 309 L 415 312 L 413 317 L 413 322 L 412 323 L 412 715 L 413 716 L 413 721 L 414 722 L 414 724 L 420 736 L 442 767 L 448 779 L 448 782 L 449 783 L 449 797 L 450 798 L 451 847 L 452 848 L 452 881 L 453 882 L 453 969 L 448 981 L 438 990 L 426 995 L 418 996 L 417 997 L 409 997 L 408 998 L 385 998 L 384 997 L 377 997 L 376 996 L 372 996 L 371 995 L 364 994 L 358 991 L 356 991 L 352 988 L 349 987 L 342 980 L 338 972 L 338 968 L 337 967 L 337 872 L 338 871 L 338 827 L 339 826 L 339 790 L 340 789 L 340 782 L 343 776 L 343 774 L 346 770 L 348 765 L 368 736 L 375 720 L 375 321 L 374 320 L 373 312 L 371 308 L 371 305 L 369 301 L 369 298 L 368 297 L 368 294 L 367 293 L 367 290 L 365 285 L 363 265 L 364 264 L 364 258 L 368 249 L 375 242 Z"/>
<path fill="#173253" fill-rule="evenodd" d="M 528 409 L 527 410 L 527 597 L 528 598 L 568 598 L 568 521 L 569 520 L 571 522 L 574 529 L 576 531 L 579 538 L 581 540 L 584 547 L 586 549 L 590 558 L 592 560 L 596 569 L 598 571 L 601 578 L 603 580 L 607 589 L 613 598 L 658 598 L 627 537 L 625 535 L 619 522 L 617 520 L 611 507 L 609 505 L 605 497 L 605 495 L 611 483 L 613 481 L 621 464 L 623 462 L 630 447 L 632 445 L 643 422 L 645 420 L 650 410 L 649 409 L 648 410 L 645 410 L 644 409 L 608 409 L 605 415 L 603 417 L 599 426 L 597 428 L 590 443 L 588 445 L 580 462 L 578 464 L 571 478 L 571 480 L 569 482 L 568 481 L 568 410 L 567 409 L 565 410 L 563 409 L 541 409 L 540 410 L 538 409 L 532 409 L 531 410 Z M 998 384 L 995 383 L 992 385 L 990 385 L 985 388 L 980 389 L 977 391 L 975 391 L 959 397 L 949 399 L 945 401 L 938 402 L 937 403 L 933 403 L 932 404 L 928 404 L 927 405 L 918 406 L 917 407 L 913 407 L 912 408 L 901 409 L 900 410 L 883 411 L 882 412 L 872 412 L 869 414 L 868 417 L 869 418 L 869 429 L 870 430 L 870 445 L 871 446 L 871 461 L 872 462 L 872 479 L 873 480 L 873 496 L 874 497 L 874 513 L 875 514 L 875 532 L 876 533 L 876 554 L 877 555 L 877 599 L 878 600 L 878 677 L 876 681 L 865 692 L 859 695 L 857 697 L 853 699 L 851 699 L 846 702 L 844 702 L 839 705 L 837 705 L 834 707 L 829 708 L 826 710 L 824 710 L 814 714 L 812 714 L 811 713 L 813 711 L 820 708 L 822 706 L 827 704 L 829 702 L 834 700 L 836 698 L 853 689 L 855 686 L 853 682 L 849 682 L 848 681 L 839 681 L 838 680 L 774 679 L 772 681 L 773 709 L 774 710 L 775 717 L 779 722 L 786 725 L 794 726 L 795 727 L 809 727 L 810 728 L 839 727 L 840 726 L 848 726 L 849 725 L 856 725 L 857 724 L 862 724 L 863 723 L 872 722 L 873 721 L 884 719 L 888 717 L 891 717 L 901 713 L 904 713 L 910 710 L 920 707 L 923 705 L 925 705 L 930 702 L 932 702 L 963 686 L 994 665 L 1016 646 L 1017 644 L 1016 640 L 1009 633 L 1009 632 L 969 585 L 969 584 L 946 557 L 934 541 L 934 538 L 941 528 L 947 516 L 949 514 L 953 505 L 955 503 L 961 491 L 961 489 L 963 487 L 963 485 L 968 476 L 968 474 L 971 469 L 971 467 L 974 462 L 974 460 L 980 447 L 981 442 L 983 439 L 983 437 L 984 436 L 984 434 L 985 433 L 985 431 L 993 409 L 994 402 L 995 401 L 996 395 L 999 388 L 999 385 Z M 810 714 L 811 713 L 812 714 L 811 715 Z M 435 328 L 435 342 L 436 343 L 437 367 L 438 368 L 438 384 L 439 385 L 439 405 L 440 406 L 441 481 L 442 482 L 442 519 L 441 520 L 441 558 L 440 559 L 440 586 L 439 587 L 439 616 L 438 617 L 438 633 L 437 634 L 437 644 L 436 645 L 435 666 L 434 667 L 434 675 L 433 676 L 433 687 L 437 688 L 438 687 L 442 687 L 443 686 L 448 686 L 449 685 L 454 685 L 455 684 L 461 684 L 462 683 L 467 683 L 468 682 L 473 682 L 474 681 L 480 681 L 481 680 L 487 680 L 488 679 L 493 679 L 494 678 L 502 678 L 503 677 L 509 677 L 510 676 L 517 676 L 518 675 L 532 674 L 533 673 L 541 673 L 542 672 L 549 672 L 550 671 L 558 671 L 559 670 L 567 670 L 568 669 L 577 669 L 578 668 L 587 668 L 588 667 L 597 667 L 598 666 L 608 666 L 609 665 L 618 665 L 619 664 L 630 664 L 631 663 L 645 663 L 646 662 L 660 662 L 661 661 L 679 661 L 680 660 L 781 660 L 782 661 L 805 661 L 806 662 L 816 662 L 817 663 L 824 663 L 825 664 L 830 664 L 831 665 L 841 666 L 842 667 L 845 667 L 846 668 L 857 671 L 863 674 L 865 674 L 868 671 L 868 667 L 867 666 L 866 620 L 865 619 L 865 600 L 864 599 L 864 580 L 863 579 L 863 558 L 862 557 L 862 537 L 861 536 L 861 518 L 860 517 L 860 497 L 859 496 L 859 479 L 858 478 L 858 462 L 857 461 L 857 445 L 856 444 L 856 430 L 855 429 L 854 407 L 853 406 L 853 399 L 852 398 L 852 392 L 851 391 L 850 381 L 848 377 L 848 374 L 847 373 L 846 368 L 839 355 L 827 343 L 814 336 L 812 336 L 805 333 L 802 333 L 798 331 L 794 331 L 793 330 L 789 330 L 788 329 L 783 329 L 782 328 L 776 328 L 775 327 L 765 327 L 764 326 L 747 326 L 746 325 L 615 325 L 614 326 L 558 326 L 557 327 L 437 327 Z M 471 359 L 704 359 L 705 360 L 705 634 L 704 635 L 634 635 L 633 636 L 617 636 L 616 637 L 602 637 L 601 638 L 589 638 L 588 639 L 575 639 L 574 640 L 562 640 L 561 641 L 540 642 L 539 643 L 522 644 L 521 645 L 512 645 L 511 646 L 503 646 L 502 647 L 485 648 L 484 649 L 477 649 L 476 650 L 470 650 L 469 649 L 469 643 L 470 642 L 470 627 L 471 626 L 471 611 L 472 610 L 472 590 L 473 589 L 473 542 L 474 541 L 474 448 L 473 447 L 472 383 L 471 382 L 471 369 L 470 368 L 470 360 Z M 387 240 L 386 241 L 381 241 L 378 243 L 376 243 L 372 246 L 367 254 L 366 261 L 365 262 L 365 275 L 366 276 L 366 282 L 367 283 L 367 287 L 368 288 L 370 299 L 372 303 L 372 306 L 374 310 L 374 313 L 376 318 L 376 323 L 377 324 L 377 718 L 376 719 L 375 725 L 369 737 L 348 768 L 343 778 L 342 785 L 341 786 L 340 853 L 339 854 L 339 969 L 343 979 L 350 986 L 360 991 L 362 991 L 366 993 L 369 993 L 370 994 L 374 994 L 375 995 L 381 995 L 382 996 L 412 996 L 413 995 L 424 994 L 437 989 L 447 980 L 451 971 L 451 965 L 452 964 L 451 865 L 450 864 L 450 836 L 449 835 L 449 811 L 448 810 L 448 789 L 447 788 L 447 781 L 441 768 L 431 753 L 428 750 L 426 746 L 423 743 L 422 740 L 415 730 L 415 728 L 412 723 L 412 720 L 411 719 L 411 319 L 412 318 L 414 307 L 416 303 L 418 292 L 420 288 L 420 284 L 421 283 L 421 279 L 422 278 L 422 273 L 423 272 L 423 262 L 422 261 L 422 256 L 417 247 L 413 244 L 407 241 L 402 241 L 401 240 Z"/>
<path fill="#e8b034" fill-rule="evenodd" d="M 471 360 L 472 382 L 473 383 L 474 447 L 475 448 L 475 541 L 474 542 L 474 589 L 473 590 L 473 610 L 472 611 L 472 627 L 471 628 L 471 644 L 470 645 L 470 649 L 483 648 L 484 647 L 492 647 L 493 646 L 501 646 L 502 645 L 510 645 L 511 644 L 520 644 L 521 643 L 531 643 L 532 642 L 538 642 L 539 641 L 550 641 L 551 640 L 573 639 L 574 638 L 586 638 L 587 637 L 601 637 L 602 636 L 616 636 L 617 635 L 631 635 L 632 634 L 633 635 L 634 634 L 704 634 L 704 360 Z M 528 408 L 530 409 L 532 408 L 568 408 L 569 409 L 569 481 L 596 428 L 598 426 L 603 415 L 608 408 L 646 408 L 647 409 L 650 408 L 651 409 L 623 464 L 621 466 L 614 481 L 612 483 L 606 495 L 606 497 L 610 505 L 612 507 L 618 520 L 620 522 L 626 535 L 628 537 L 649 579 L 651 581 L 651 583 L 653 585 L 659 597 L 658 599 L 613 599 L 610 596 L 608 591 L 606 589 L 602 580 L 600 578 L 597 571 L 595 569 L 591 560 L 589 558 L 585 549 L 583 547 L 580 540 L 578 538 L 575 531 L 573 529 L 569 521 L 569 598 L 568 599 L 528 599 L 526 597 L 526 410 Z"/>
</svg>